<svg xmlns="http://www.w3.org/2000/svg" width="1779.549" height="1358.848" viewBox="0 0 1779.549 1358.848">
  <g id="Mailbox" transform="translate(-787.829 -7281.119)">
    <path id="Path_1411" data-name="Path 1411" d="M17200.211,21348.207l140.031,42.982-106.58,73.033-22.98-73.033Z" transform="translate(-14926 -13727)" fill="#c2b59c" opacity="0.56"/>
    <path id="Path_1410" data-name="Path 1410" d="M16831.318,21158.727l58.949,49.262,73.957,74.883,86.242-172.613Z" transform="translate(-14926 -13727)" fill="#c2b59c"/>
    <path id="Path_1406" data-name="Path 1406" d="M774.979,1530.959c-1.561,0-2.5-17.167-4.057-44.946s-3.433-65.858-7.179-107.994c-3.433-42.136-7.8-80.215-10.924-107.682s-4.994-44.633-3.745-44.946,5.618,16.543,10.612,43.7c4.994,27.467,10.612,65.546,14.045,107.682,3.433,42.449,4.37,80.84,4.057,108.619,0,28.4-1.561,45.57-2.809,45.57Z" transform="matrix(0.105, -0.995, 0.995, 0.105, 289.701, 8255.457)" stroke="#000" stroke-miterlimit="10" stroke-width="1"/>
    <path id="Path_1399" data-name="Path 1399" d="M1568.721,1353.176c243.5-236.792,255.965-599.889-183.586-1007.086-63.752-59.2-94.909-141.644-158.181-185.982C1035.22,25.654,766.073,52.977,596.627,252.62c-92.752,109.289-130.14,259.321-226.486,366.453C262.05,739.386,132.63,856.344,83.5,1020.277c-32.595,108.57-27.082,226.966,10.066,333.139C627.544,1448.325,1132.286,1477.564,1568.721,1353.176Z" transform="translate(725.777 7204.078)" fill="#c2b59c" opacity="0.1"/>
    <path id="Path_1400" data-name="Path 1400" d="M2365.72,2490.13h491.537c-12.973-23.413-40.541-16.154-70.219-16.779-5.547-17.5-63.691-10.42-96.805-5.031,41.95-38.256,38.343-65.283-34.818-40.786,83.564-113.762-12.684-157.034-31.814-159.31-24.1-2.875-134.91,14.844-76.18,133.31-71.147-29.529-90.612,5.374-36.916,66.786C2459.2,2470.73,2397.74,2481.99,2365.72,2490.13Z" transform="translate(-1555.646 6069.781)" fill="rgba(131,168,127,0.44)"/>
    <g id="Path_1403" data-name="Path 1403" transform="translate(-1555.646 6069.785)" fill="none">
      <path d="M2365.72,2490.13h491.537c-12.973-23.413-40.541-16.154-70.219-16.779-5.547-17.5-20.918-17.135-54.032-11.746,41.95-38.256,28.862-75.841-44.3-51.344,83.564-113.762-45.977-139.762-65.107-142.037-24.1-2.875-134.91,14.844-76.18,133.31-71.147-29.529-90.612,5.374-36.916,66.786C2459.2,2470.73,2397.74,2481.99,2365.72,2490.13Z" stroke="none"/>
      <path d="M 2833.861083984375 2482.1298828125 C 2829.592041015625 2481.176513671875 2824.41552734375 2480.759033203125 2818.044189453125 2480.759033203125 C 2814.010009765625 2480.759033203125 2809.8173828125 2480.9072265625 2805.512939453125 2481.057373046875 C 2800.78076171875 2481.22265625 2795.9189453125 2481.390869140625 2790.98388671875 2481.390869140625 L 2786.86962890625 2481.34912109375 L 2781.142333984375 2481.228515625 L 2779.41162109375 2475.767822265625 C 2777.38623046875 2469.376953125 2774.353759765625 2466.33544921875 2762.597412109375 2466.33544921875 C 2754.814697265625 2466.33544921875 2744.393310546875 2467.85693359375 2734.290771484375 2469.5009765625 L 2707.736083984375 2473.822265625 L 2727.615234375 2455.693603515625 C 2745.4580078125 2439.422119140625 2750.734375 2425.145263671875 2748.048828125 2418.21435546875 C 2745.431884765625 2411.461181640625 2734.70654296875 2410.45263671875 2728.546142578125 2410.45263671875 C 2718.448974609375 2410.45263671875 2705.899658203125 2412.9404296875 2691.246826171875 2417.846923828125 L 2667.32421875 2425.85693359375 L 2682.25927734375 2405.524658203125 C 2706.45263671875 2372.588623046875 2713.97705078125 2344.96044921875 2704.6240234375 2323.40771484375 C 2690.550537109375 2290.977783203125 2640.682373046875 2278.311767578125 2622.65234375 2276.167236328125 C 2621.412841796875 2276.01953125 2619.89501953125 2275.945556640625 2618.1513671875 2275.945556640625 C 2597.88818359375 2275.945556640625 2562.130615234375 2284.989501953125 2546.6728515625 2309.90576171875 C 2533.488037109375 2331.158447265625 2536.15087890625 2360.791015625 2554.58740234375 2397.980224609375 L 2564.06884765625 2417.10546875 L 2544.353271484375 2408.922607421875 C 2528.514404296875 2402.3486328125 2514.721923828125 2398.8740234375 2504.466796875 2398.8740234375 C 2498.667236328125 2398.8740234375 2491.2451171875 2399.994873046875 2488.821044921875 2405.334716796875 C 2485.232177734375 2413.239501953125 2490.3349609375 2433.098876953125 2516.5263671875 2463.0537109375 L 2527.437744140625 2475.53271484375 L 2510.87939453125 2476.310791015625 C 2491.56787109375 2477.218017578125 2470.98388671875 2479.386474609375 2451.244140625 2482.1298828125 L 2833.861083984375 2482.1298828125 M 2857.2568359375 2490.1298828125 L 2365.719970703125 2490.1298828125 C 2397.739990234375 2481.989990234375 2459.199951171875 2470.72998046875 2510.50390625 2468.319580078125 C 2456.807373046875 2406.907470703125 2476.2734375 2372.005126953125 2547.419921875 2401.53369140625 C 2488.68994140625 2283.067626953125 2599.49462890625 2265.349853515625 2623.599853515625 2268.2236328125 C 2642.729736328125 2270.498779296875 2772.270751953125 2296.498779296875 2688.706787109375 2410.2607421875 C 2761.867431640625 2385.763427734375 2774.955810546875 2423.3486328125 2733.005859375 2461.604736328125 C 2766.120361328125 2456.21630859375 2781.49072265625 2455.84814453125 2787.037841796875 2473.350830078125 C 2797.85498046875 2473.577880859375 2808.391845703125 2472.7587890625 2818.044189453125 2472.759033203125 C 2834.873046875 2472.759033203125 2849.0126953125 2475.2509765625 2857.2568359375 2490.1298828125 Z" stroke="none" fill="#333"/>
    </g>
    <g id="Layer_2" data-name="Layer 2" transform="translate(1005.99 7534.104)">
      <g id="Layer_1" data-name="Layer 1" transform="translate(0.01 0)">
        <path id="Path_1384" data-name="Path 1384" d="M165.231,20.055V50.729H64.33c-9.971,0-28.445-20.7-28.445-30.674V-7H137.537c9.83.2,27.7,17.223,27.694,27.055Zm4.837,312.783c.049,12.631-12.254,38.986-23.914,43.842s-43.192-3.1-52.123-12.035S78.234,330.98,83.09,319.32s30.115-34.433,42.746-34.385c17.123.066,44.166,30.779,44.232,47.9Z" transform="translate(542.761 22.073)" fill="#c2b59c"/>
        <path id="Path_1393" data-name="Path 1393" d="M495.519,125.074C387.508,139.189,20.811,119.99,20.811,119.99,11.317,120.362-.735,106.134-.735,89.1S20.811,51.86,20.811,51.86s315.5,5.462,432.044,11.671C508.725,59.041,492.087,75.813,495.519,125.074Z" transform="translate(14.593 553.374)" fill="#c2b59c"/>
        <path id="Path_1395" data-name="Path 1395" d="M258.633,56.86V96.967c0,6.369-3.842,11.533-8.581,11.533H55.771c-4.739,0-8.581-5.163-8.581-11.533V56.86Z" transform="translate(507.967 627.531)" fill="#c2b59c"/>
        <path id="Path_1404" data-name="Path 1404" d="M0,0S109.058-89.039,145.41,0c-3.063,91.723,0,356.158,0,356.158H0Z" transform="translate(592.034 744.574)" fill="#c2b59c"/>
        <path id="Path_1392" data-name="Path 1392" d="M348.67-62.824c12.06,76.73,0,254.613,0,254.613s-268.263,11.469-360.051,0C-50.075,94.58.122-81.742.122-81.742,182.111-53.242,307.964-133.329,348.67-62.824Z" transform="translate(162.998 408.348)" fill="#3a7735" opacity="0.45"/>
        <path id="Path_1386" data-name="Path 1386" d="M219.76,129.932v62.781H28.18V77.882C28.132,60.853,56.342,44.628,64.234,29.3c37.844-18.919,65.322-29.431,102.088-8.717s53.319,69.04,53.438,109.347Z" transform="translate(294.013 124.326)" fill="#c2b59c" opacity="0.51"/>
        <path id="Path_1398" data-name="Path 1398" d="M507.97,66.424V483.366a28.045,28.045,0,0,1-28.045,28.165s-265.032,1.22-458.565-6.549C-3.591,360.13,48.7,54.234-26.976-27.648c116.221,5.283,286.976-23.9,417.463,0S507.97,66.424,507.97,66.424Z" transform="translate(502.368 162.787)" fill="#c2b59c" opacity="0.52"/>
        <path id="Subtraction_1" data-name="Subtraction 1" d="M-15179.483-20160.373h0l-11.278,0v-356.156h-145.279l-6.072,356.156h-7.924v-356.156h-6.019a32.1,32.1,0,0,1-12.488-2.555,32.157,32.157,0,0,1-10.2-6.893,32.107,32.107,0,0,1-6.891-10.2,32.064,32.064,0,0,1-2.557-12.49v-28.045h-501.676a41.863,41.863,0,0,1-16.4-3.311,41.968,41.968,0,0,1-13.393-9.027,41.971,41.971,0,0,1-9.029-13.391,41.855,41.855,0,0,1-3.311-16.4,41.852,41.852,0,0,1,3.311-16.4,41.971,41.971,0,0,1,9.029-13.391,41.984,41.984,0,0,1,13.393-9.029,41.863,41.863,0,0,1,16.4-3.311h94.124v-251.441h-3.01l3.127-.725a31.733,31.733,0,0,1,9.677-21.93,31.742,31.742,0,0,1,22.211-9c.045,0,.089,0,.133,0l146.6,0v-86.3a111.411,111.411,0,0,1,2.282-22.221,110.159,110.159,0,0,1,6.455-20.7,110.652,110.652,0,0,1,10.185-18.73,111.459,111.459,0,0,1,13.475-16.324,111.319,111.319,0,0,1,16.323-13.475,110.611,110.611,0,0,1,18.732-10.186,110.092,110.092,0,0,1,20.7-6.455,111.5,111.5,0,0,1,22.223-2.283h279.624v-36.107h-94.983l-.359,0a41.961,41.961,0,0,1-16.035-3.17,41.978,41.978,0,0,1-13.624-9.041,41.93,41.93,0,0,1-9.229-13.715,41.906,41.906,0,0,1-3.242-16.209v-20.1a21.926,21.926,0,0,1,1.688-8.455,21.932,21.932,0,0,1,4.806-7.164,21.934,21.934,0,0,1,7.135-4.742,21.929,21.929,0,0,1,8.4-1.668h.117l90.629,0a41.813,41.813,0,0,1,16.282,3.414,41.981,41.981,0,0,1,13.275,9.053,41.98,41.98,0,0,1,8.938,13.35,41.873,41.873,0,0,1,3.274,16.311v78.24h188.974a111.232,111.232,0,0,1,22.24,2.262,109.831,109.831,0,0,1,20.717,6.441,110.4,110.4,0,0,1,18.752,10.178,111.4,111.4,0,0,1,16.343,13.475,111.326,111.326,0,0,1,13.492,16.328,110.6,110.6,0,0,1,10.2,18.74,110.091,110.091,0,0,1,6.463,20.709,111.43,111.43,0,0,1,2.284,22.238v401.416a52.024,52.024,0,0,1-4.136,20.313,52.141,52.141,0,0,1-11.2,16.59,52.193,52.193,0,0,1-16.59,11.2,52.032,52.032,0,0,1-20.311,4.137h-178.985v28.045a32.048,32.048,0,0,1-2.556,12.49,32.12,32.12,0,0,1-6.89,10.2,32.157,32.157,0,0,1-10.2,6.893,32.09,32.09,0,0,1-12.49,2.555h-5.656v356.158Zm-195.254-416.34h0v36.107c0,1.047.771,2.387,2.293,3.979a34.283,34.283,0,0,0,5.377,4.4c4.362,2.969,8.891,5.041,11.011,5.041h182.229c2.34,0,6.447-4.686,9.512-9.072a61.145,61.145,0,0,0,4.347-7.178,14.1,14.1,0,0,0,1.824-5.236v-28.045Zm147.729-551.951-230.92,2.322,22.849,22.432c22.852,20.8,27.437,42.719,27.634,73.543v433.574l444.742,9.525a32.081,32.081,0,0,0,8.843-1.738,50.323,50.323,0,0,0,12.39-6,40.977,40.977,0,0,0,11.5-11.451,39.191,39.191,0,0,0,6.184-18.09c2.221-25.832,3.6-63.754,4.105-112.711.4-39.139.251-85.424-.456-137.572-1.207-89.115-3.625-164.609-3.649-165.361a72.044,72.044,0,0,0-8.516-33.549,87.05,87.05,0,0,0-9.706-14.635,98.82,98.82,0,0,0-12.536-12.75,107.329,107.329,0,0,0-14.765-10.516,109.155,109.155,0,0,0-16.393-7.939,103.927,103.927,0,0,0-17.419-5.018,94.049,94.049,0,0,0-17.843-1.748l-188.974-2.32v221.555a55.084,55.084,0,0,1-2.916,17.936,55.132,55.132,0,0,1-8.31,15.654,55.1,55.1,0,0,1-12.834,12.225,55.094,55.094,0,0,1-16.487,7.65,55.211,55.211,0,0,1-14.7,2,55.391,55.391,0,0,1-27.15-7.139,55.057,55.057,0,0,1-11.375-8.512,55.311,55.311,0,0,1-9.006-11.441,55.1,55.1,0,0,1-6.569-16.947,55.188,55.188,0,0,1-.764-17.707,55.173,55.173,0,0,1,4.873-17.041,55.065,55.065,0,0,1,10.341-14.943,54.864,54.864,0,0,1,18.375-12.512,55.432,55.432,0,0,1,10.45-3.187,55.5,55.5,0,0,1,10.849-1.074,55.2,55.2,0,0,1,13.621,1.707,55.232,55.232,0,0,1,13.077,5.184l11.451,9.529v-182.934Zm-662.861,481.229h0a21.151,21.151,0,0,0-8.417,2.174,41.489,41.489,0,0,0-8.793,5.533,34.859,34.859,0,0,0-6.923,7.4,14.324,14.324,0,0,0-2.808,7.781,78.451,78.451,0,0,0,2.81,20.105,28.71,28.71,0,0,0,4.035,8.914c1.824,2.463,3.929,3.711,6.254,3.711l483.38,4.547v-55.248Zm223.155-157.129h0l-114.961,76.313v59.223c0,2.6,4.613,4.688,7.362,5.7a37.418,37.418,0,0,0,10.705,2.361h343.276v-196.557l-117.832,84.855c-2.3,1.9-5,4.48-7.855,7.213-8.816,8.438-19.787,18.936-28.86,19.029a52.027,52.027,0,0,1-17.081-2.937,51.938,51.938,0,0,1-15.174-8.375l-59.58-46.826Zm-114.838-102.3-.123,160.443,102.726-77.994-102.6-82.449Zm10.223-23.338v0c-.021,0-.032.008-.037.021-.045.123.317,1.895,26.522,25.869,30.232,27.66,81.341,72.561,151.908,133.455,3.734,2.963,8.392,4.342,14.654,4.342,1.061,0,2.173-.037,3.4-.115a10.744,10.744,0,0,0,8.4-4.363,6.111,6.111,0,0,1,1.826-1.672,4.983,4.983,0,0,0,1.687-.719,18.045,18.045,0,0,0,4.215-2.408,8.532,8.532,0,0,0,1.686-1.205l136.732-95.1v-58.107h-350.991l0,0Zm506.831-16.5a40.046,40.046,0,0,0-40,40,40.047,40.047,0,0,0,40,40,40.044,40.044,0,0,0,40-40A40.043,40.043,0,0,0-15264.5-20946.707Zm-242.135-179.637a78.675,78.675,0,0,0-18,2.17,97.884,97.884,0,0,0-17.809,6.123,115,115,0,0,0-16.933,9.508,123.408,123.408,0,0,0-15.38,12.314,120,120,0,0,0-13.146,14.549,105.883,105.883,0,0,0-10.231,16.209,87.138,87.138,0,0,0-6.638,17.295,70.542,70.542,0,0,0-2.363,17.809v84.99l186.8,1.314v-86.3c0-23.3-9.213-47.309-25.276-65.861a97.3,97.3,0,0,0-12.772-12.314,87.065,87.065,0,0,0-14.659-9.508A73.307,73.307,0,0,0-15506.634-21126.344Zm159.707-116.689h0v24.055a19.131,19.131,0,0,0,2.513,8.436,43.076,43.076,0,0,0,6.275,8.834,40.012,40.012,0,0,0,8.145,6.965,16.088,16.088,0,0,0,8.119,2.824h93.868v-27.059a17.144,17.144,0,0,0-2.307-7.85,34.827,34.827,0,0,0-5.812-7.75,35.118,35.118,0,0,0-7.646-5.963,17.442,17.442,0,0,0-7.811-2.492Z" transform="translate(15932 21261.104)" fill="#333"/>
      </g>
      <path id="Path_1407" data-name="Path 1407" d="M1204.151,626.754c.156.073-.312,1.386-1.8,3.428a28.466,28.466,0,0,1-8.2,7.075A56.66,56.66,0,0,1,1179,643.312a67.945,67.945,0,0,1-20.071,2.042,57.143,57.143,0,0,1-19.68-4.449,51.238,51.238,0,0,1-13.667-8.68,39.584,39.584,0,0,1-6.872-8.1c-.312-.511-.625-1.021-.859-1.386-.234-.438-.39-.8-.547-1.094-.234-.583-.391-.948-.312-.948s.313.219.7.729a5.337,5.337,0,0,1,.7.948c.312.365.625.8,1.015,1.24a52.81,52.81,0,0,0,7.263,7.367,54.5,54.5,0,0,0,13.354,7.951,57.789,57.789,0,0,0,18.821,4.085,68.059,68.059,0,0,0,19.29-1.823,58.419,58.419,0,0,0,14.838-5.4,35.2,35.2,0,0,0,8.356-6.2c1.874-1.751,2.655-2.918,2.811-2.845Z" transform="translate(-206.861 1232.102) rotate(-56)" stroke="#000" stroke-miterlimit="10" stroke-width="5"/>
    </g>
    <path id="Path_1401" data-name="Path 1401" d="M910.384,2490.13h858.529c-55.692-12.937-206.536-20.248-258.448-21.341-9.7-30.616-25.062-26.233-82.982-16.8,73.377-66.916,54.269-138.043-73.7-95.193,146.166-198.987-70.993-233.946-104.455-237.926-42.162-5.028-225.266,9.085-122.539,216.3-124.447-51.65-158.493,9.4-64.572,116.82C972.491,2456.19,940.655,2466.72,910.384,2490.13Z" transform="translate(798.465 6144.705)" fill="#83a87f"/>
    <g id="Path_1402" data-name="Path 1402" transform="translate(798.465 6144.705)" fill="none">
      <path d="M910.384,2490.13h858.529c-55.692-12.937-171.086-28.255-223-29.348-9.7-30.616-36.589-29.973-94.509-20.545,73.377-66.916,50.484-132.657-77.484-89.807,146.166-198.987-80.42-244.465-113.882-248.445-42.162-5.028-235.978,25.965-133.251,233.179-124.447-51.65-158.493,9.4-64.572,116.82C972.491,2456.19,940.655,2466.72,910.384,2490.13Z" stroke="none"/>
      <path d="M 1678.281860351562 2482.1298828125 C 1628.812133789062 2474.97900390625 1576.224609375 2469.421875 1545.74658203125 2468.7802734375 L 1540.019409179688 2468.65966796875 L 1538.288818359375 2463.198974609375 C 1533.449462890625 2447.929443359375 1524.258666992188 2442.517578125 1503.166625976562 2442.517578125 C 1489.126708984375 2442.517578125 1470.60986328125 2445.216552734375 1452.691162109375 2448.13330078125 L 1426.134887695312 2452.455810546875 L 1446.015258789062 2434.325927734375 C 1475.303588867188 2407.61669921875 1489.941650390625 2379.295654296875 1483.307250976562 2362.17529296875 C 1478.95849609375 2350.95263671875 1464.859497070312 2344.772216796875 1443.607421875 2344.772216796875 C 1425.2978515625 2344.772216796875 1402.706909179688 2349.22802734375 1376.4619140625 2358.01611328125 L 1352.5390625 2366.02685546875 L 1367.474365234375 2345.694091796875 C 1411.14453125 2286.242431640625 1424.530883789062 2235.920166015625 1407.261474609375 2196.125244140625 C 1381.520751953125 2136.809814453125 1291.578979492188 2113.792724609375 1259.092651367188 2109.928955078125 C 1256.731201171875 2109.647216796875 1253.831909179688 2109.49853515625 1250.510864257812 2109.49853515625 C 1218.858276367188 2109.49853515625 1150.927978515625 2122.505615234375 1120.387939453125 2171.733154296875 C 1096.159423828125 2210.786865234375 1100.724609375 2264.57763671875 1133.956420898438 2331.61083984375 L 1143.437622070312 2350.735595703125 L 1123.72216796875 2342.552978515625 C 1095.296020507812 2330.7548828125 1070.376586914062 2324.51904296875 1051.657958984375 2324.51904296875 C 1039.75244140625 2324.51904296875 1024.3935546875 2327.08935546875 1018.833862304688 2339.33544921875 C 1011.484069824219 2355.5244140625 1020.603393554688 2392.235595703125 1068.239501953125 2446.718505859375 L 1079.15185546875 2459.19921875 L 1062.591552734375 2459.975341796875 C 995.0204467773438 2463.142578125 961.6629638671875 2470.004638671875 937.6306762695312 2482.1298828125 L 1678.281860351562 2482.1298828125 M 1768.9130859375 2490.1298828125 L 910.3839721679688 2490.1298828125 C 940.655029296875 2466.719970703125 972.4910278320312 2456.18994140625 1062.216918945312 2451.984130859375 C 968.2958984375 2344.563720703125 1002.342102050781 2283.513671875 1126.788940429688 2335.1640625 C 1024.06201171875 2127.95068359375 1217.878173828125 2096.95751953125 1260.039916992188 2101.985107421875 C 1293.501831054688 2105.965087890625 1520.087890625 2151.443115234375 1373.921875 2350.43017578125 C 1501.89013671875 2307.58056640625 1524.782836914062 2373.321044921875 1451.405883789062 2440.237060546875 C 1509.325561523438 2430.80908203125 1536.212036132812 2430.166015625 1545.914916992188 2460.781982421875 C 1597.826904296875 2461.875 1713.220947265625 2477.19287109375 1768.9130859375 2490.1298828125 Z" stroke="none" fill="#333"/>
    </g>
    <path id="Path_1405" data-name="Path 1405" d="M774.979,1530.959c-1.561,0-2.5-17.167-4.057-44.946s-3.433-65.858-7.179-107.994c-3.433-42.136-7.8-80.215-10.924-107.682s-4.994-44.633-3.745-44.946,5.618,16.543,10.612,43.7c4.994,27.467,10.612,65.546,14.045,107.682,3.433,42.449,4.37,80.84,4.057,108.619,0,28.4-1.561,45.57-2.809,45.57Z" transform="matrix(0.996, 0.087, -0.087, 0.996, 1403.131, 6477.98)" stroke="#000" stroke-miterlimit="10" stroke-width="1"/>
    <path id="Path_1408" data-name="Path 1408" d="M1228.6,628.452c.2.093-.4,1.775-2.3,4.39a36.448,36.448,0,0,1-10.5,9.06,72.545,72.545,0,0,1-19.4,7.752,87,87,0,0,1-25.7,2.615,73.17,73.17,0,0,1-25.2-5.7,65.6,65.6,0,0,1-17.5-11.115,50.688,50.688,0,0,1-8.8-10.367c-.4-.654-.8-1.308-1.1-1.775-.3-.56-.5-1.027-.7-1.4-.3-.747-.5-1.214-.4-1.214s.4.28.9.934a6.825,6.825,0,0,1,.9,1.214c.4.467.8,1.027,1.3,1.588a67.617,67.617,0,0,0,9.3,9.433,69.786,69.786,0,0,0,17.1,10.181,74,74,0,0,0,24.1,5.23,87.147,87.147,0,0,0,24.7-2.335,74.8,74.8,0,0,0,19-6.911,45.076,45.076,0,0,0,10.7-7.939c2.4-2.242,3.4-3.736,3.6-3.643Z" transform="translate(2731.48 7677.393) rotate(150)" stroke="#000" stroke-miterlimit="10" stroke-width="6"/>
    <g id="Group_420" data-name="Group 420" transform="translate(1905.318 7379.463)">
      <path id="Path_5" data-name="Path 5" d="M356.778,383.958l205.452-44.319,2.67-.575a7.392,7.392,0,0,1,8.2,10.5L491.521,515.22a7.382,7.382,0,0,1-11.979,1.814l-56.659-59.742a4.3,4.3,0,0,0-3.161-1.38,4.449,4.449,0,0,0-3.959,2.3L404.158,479.68a7.221,7.221,0,0,1-8.085,3.705l-.058-.013a7.23,7.23,0,0,1-5.729-6.867l-2.325-49.551a4.511,4.511,0,0,0-.453-1.78,4.82,4.82,0,0,0-1.165-1.438L353.656,396.9a7.4,7.4,0,0,1,3.122-12.946Zm-1.255,10.665,32.687,26.832a7.266,7.266,0,0,1,1.15,1.162L562.6,344.049a2.558,2.558,0,0,1,.476-.167,2.959,2.959,0,0,1,2.467,5.268L423.1,453.783a7.077,7.077,0,0,1,1.929,1.471L481.687,515a4.434,4.434,0,0,0,7.188-1.088l81.573-165.654a4.444,4.444,0,0,0-4.918-6.294l-2.734.591-205.387,44.3a4.443,4.443,0,0,0-1.886,7.771Z" transform="translate(-350.953 -338.896)" fill="#333" stroke="#333" stroke-width="6"/>
      <path id="Path_16" data-name="Path 16" d="M356.778,383.958l205.452-44.319,2.67-.575a7.392,7.392,0,0,1,8.2,10.5L491.521,515.22a7.382,7.382,0,0,1-11.979,1.814l-56.659-59.742a4.3,4.3,0,0,0-3.161-1.38,4.449,4.449,0,0,0-3.959,2.3L404.158,479.68a7.221,7.221,0,0,1-8.085,3.705l-.058-.013a7.23,7.23,0,0,1-5.729-6.867l-2.325-49.551a4.511,4.511,0,0,0-.453-1.78,4.82,4.82,0,0,0-1.165-1.438L353.656,396.9a7.4,7.4,0,0,1,3.122-12.946Zm-1.255,10.665,32.687,26.832a7.266,7.266,0,0,1,1.15,1.162,6.862,6.862,0,0,1,.787,1.234,7.11,7.11,0,0,1,.536,1.4l0,.015a7.041,7.041,0,0,1,.233,1.55l2.324,49.55a4.291,4.291,0,0,0,3.433,4.119l.029.006a4.3,4.3,0,0,0,4.863-2.208l11.608-21.48a7.374,7.374,0,0,1,6.058-3.851l.014,0c.169-.008.337-.016.5-.01a7.193,7.193,0,0,1,3.357.834,7.076,7.076,0,0,1,1.929,1.471L481.687,515a4.434,4.434,0,0,0,7.188-1.089l81.573-165.654a4.444,4.444,0,0,0-4.918-6.294l-2.734.591-205.387,44.3a4.443,4.443,0,0,0-1.886,7.771Z" transform="translate(-350.953 -338.896)" fill="#333" stroke="#333" stroke-width="6"/>
    </g>
    <path id="Path_1409" data-name="Path 1409" d="M142.1,88.62,7.614,117.632l-1.748.376A4.838,4.838,0,0,1,.5,111.134L53.9,2.7A4.832,4.832,0,0,1,61.74,1.51L98.829,40.616a2.815,2.815,0,0,0,2.069.9,2.911,2.911,0,0,0,2.592-1.506l7.6-14.052a4.727,4.727,0,0,1,5.293-2.425l.037.008a4.735,4.735,0,0,1,3.751,4.5l1.522,32.436a2.955,2.955,0,0,0,.3,1.165,3.17,3.17,0,0,0,.764.942s11.787,9.5,21.4,17.563,2.071,3.073,1.635,4.878a4.841,4.841,0,0,1-3.678,3.6Zm.821-6.981-21.4-17.564a4.724,4.724,0,0,1-.753-.761L7.371,114.746a1.718,1.718,0,0,1-.312.108,1.937,1.937,0,0,1-1.615-3.447L98.687,42.913a4.624,4.624,0,0,1-1.262-.963L60.337,2.844a2.9,2.9,0,0,0-4.705.713L2.233,111.993a2.909,2.909,0,0,0,3.219,4.12l1.789-.386,134.446-29a2.908,2.908,0,0,0,1.235-5.086Z" transform="matrix(-0.875, -0.485, 0.485, -0.875, 2357.951, 7763.957)" fill="#333" stroke="#333" stroke-width="6"/>
  </g>
</svg>
