<svg xmlns="http://www.w3.org/2000/svg" width="1696.077" height="1369.662" viewBox="0 0 1696.077 1369.662">
  <g id="Empty_Cart" data-name="Empty Cart" transform="translate(-1022.495 -1240.9)">
    <g id="Path_1373" data-name="Path 1373" transform="translate(-203)" fill="none">
      <path d="M2365.72,2490.13h491.537c-12.973-23.413-40.541-16.154-70.219-16.779-5.547-17.5-20.918-17.135-54.032-11.746,41.95-38.256,28.862-75.841-44.3-51.344,83.564-113.762-45.977-139.762-65.107-142.037-24.1-2.875-134.91,14.844-76.18,133.31-71.147-29.529-90.612,5.374-36.916,66.786C2459.2,2470.73,2397.74,2481.99,2365.72,2490.13Z" stroke="none"/>
      <path d="M 2833.861083984375 2482.1298828125 C 2829.592041015625 2481.176513671875 2824.41552734375 2480.759033203125 2818.044189453125 2480.759033203125 C 2814.010009765625 2480.759033203125 2809.8173828125 2480.9072265625 2805.512939453125 2481.057373046875 C 2800.78076171875 2481.22265625 2795.9189453125 2481.390869140625 2790.98388671875 2481.390869140625 L 2786.86962890625 2481.34912109375 L 2781.142333984375 2481.228515625 L 2779.41162109375 2475.767822265625 C 2777.38623046875 2469.376953125 2774.353759765625 2466.33544921875 2762.597412109375 2466.33544921875 C 2754.814697265625 2466.33544921875 2744.393310546875 2467.85693359375 2734.290771484375 2469.5009765625 L 2707.736083984375 2473.822265625 L 2727.615234375 2455.693603515625 C 2745.4580078125 2439.422119140625 2750.734375 2425.145263671875 2748.048828125 2418.21435546875 C 2745.431884765625 2411.461181640625 2734.70654296875 2410.45263671875 2728.546142578125 2410.45263671875 C 2718.448974609375 2410.45263671875 2705.899658203125 2412.9404296875 2691.246826171875 2417.846923828125 L 2667.32421875 2425.85693359375 L 2682.25927734375 2405.524658203125 C 2706.45263671875 2372.588623046875 2713.97705078125 2344.96044921875 2704.6240234375 2323.40771484375 C 2690.550537109375 2290.977783203125 2640.682373046875 2278.311767578125 2622.65234375 2276.167236328125 C 2621.412841796875 2276.01953125 2619.89501953125 2275.945556640625 2618.1513671875 2275.945556640625 C 2597.88818359375 2275.945556640625 2562.130615234375 2284.989501953125 2546.6728515625 2309.90576171875 C 2533.488037109375 2331.158447265625 2536.15087890625 2360.791015625 2554.58740234375 2397.980224609375 L 2564.06884765625 2417.10546875 L 2544.353271484375 2408.922607421875 C 2528.514404296875 2402.3486328125 2514.721923828125 2398.8740234375 2504.466796875 2398.8740234375 C 2498.667236328125 2398.8740234375 2491.2451171875 2399.994873046875 2488.821044921875 2405.334716796875 C 2485.232177734375 2413.239501953125 2490.3349609375 2433.098876953125 2516.5263671875 2463.0537109375 L 2527.437744140625 2475.53271484375 L 2510.87939453125 2476.310791015625 C 2491.56787109375 2477.218017578125 2470.98388671875 2479.386474609375 2451.244140625 2482.1298828125 L 2833.861083984375 2482.1298828125 M 2857.2568359375 2490.1298828125 L 2365.719970703125 2490.1298828125 C 2397.739990234375 2481.989990234375 2459.199951171875 2470.72998046875 2510.50390625 2468.319580078125 C 2456.807373046875 2406.907470703125 2476.2734375 2372.005126953125 2547.419921875 2401.53369140625 C 2488.68994140625 2283.067626953125 2599.49462890625 2265.349853515625 2623.599853515625 2268.2236328125 C 2642.729736328125 2270.498779296875 2772.270751953125 2296.498779296875 2688.706787109375 2410.2607421875 C 2761.867431640625 2385.763427734375 2774.955810546875 2423.3486328125 2733.005859375 2461.604736328125 C 2766.120361328125 2456.21630859375 2781.49072265625 2455.84814453125 2787.037841796875 2473.350830078125 C 2797.85498046875 2473.577880859375 2808.391845703125 2472.7587890625 2818.044189453125 2472.759033203125 C 2834.873046875 2472.759033203125 2849.0126953125 2475.2509765625 2857.2568359375 2490.1298828125 Z" stroke="none" fill="#333"/>
    </g>
    <path id="Path_1372" data-name="Path 1372" d="M1568.721,1353.176c243.5-236.792,255.965-599.889-183.586-1007.086-63.752-59.2-94.909-141.644-158.181-185.982C1035.22,25.654,766.073,52.977,596.627,252.62c-92.752,109.289-130.14,259.321-226.486,366.453C262.05,739.386,132.63,856.344,83.5,1020.277c-32.595,108.57-27.082,226.966,10.066,333.139C627.544,1448.325,1132.286,1477.564,1568.721,1353.176Z" transform="translate(981.424 1163.859)" fill="#c2b59c" opacity="0.1"/>
    <path id="Path_1334" data-name="Path 1334" d="M2365.72,2490.13h491.537c-12.973-23.413-40.541-16.154-70.219-16.779-5.547-17.5-63.691-10.42-96.805-5.031,41.95-38.256,38.343-65.283-34.818-40.786,83.564-113.762-12.684-157.034-31.814-159.31-24.1-2.875-134.91,14.844-76.18,133.31-71.147-29.529-90.612,5.374-36.916,66.786C2459.2,2470.73,2397.74,2481.99,2365.72,2490.13Z" transform="translate(-203 -0.002)" fill="rgba(131,168,127,0.44)"/>
    <g id="Group_416" data-name="Group 416" transform="translate(-540 -359.505)">
      <path id="Path_1338" data-name="Path 1338" d="M2025.84,1923.7l79.924-47.3s404.4,15.448,586.92,15.448,143.161-15.448,143.161-15.448l-48.7,47.3Z" transform="translate(0.005 102.202)" fill="#ddd5c7"/>
      <path id="Path_1381" data-name="Path 1381" d="M2025.84,1923.7l79.924-47.3h730.081l-48.7,47.3Z" transform="translate(0.006 102.199)" fill="none" stroke="#333" stroke-width="8"/>
      <g id="Group_418" data-name="Group 418" transform="translate(1840.707 -332.322)">
        <path id="Path_873" data-name="Path 873" d="M1012.318,938.1c2.109-.3,4.821,28.02,18.529,72.31,7.683,24.857,11.148,29.978,34.347,89.031,29.527,75.022,27.87,78.336,26.966,78.788-3.766,1.958-23.35-29.677-25.007-32.389a373.06,373.06,0,0,1-46.4-116.9c-10.244-47.453-11-90.538-8.436-90.839Z" transform="translate(-559.709 1212.651)" fill="#f4e4d9"/>
        <path id="Path_874" data-name="Path 874" d="M1011.2,942.315a409.874,409.874,0,0,0,17.023,89.484c9.34,30.43,22.9,60.861,49.864,121.571,6.628,15.065,6.779,14.763,9.34,20.94,9.943,25.158,10.7,33.293,18.981,43.386,4.067,4.971,10.847,11.449,22.6,16.571a92.621,92.621,0,0,1,13.106-32.54c11.148-16.872,19.433-16.42,27.267-32.841,3.766-7.984,9.189-19.283,9.34-33.9.151-4.67-.3-11.9,3.766-19.734,2.41-4.67,4.67-6.327,7.532-9.792,11.148-13.709,14.462-35.854,7.532-40.976-1.205-.9-3.013-1.657-6.629-1.055,1.808-9.641,3.766-19.283,5.574-29.075a554.247,554.247,0,0,0,10.395-78.034c.6-9.491.753-19.433-2.862-20.639-3.917-1.356-10.395,8.888-23.5,29.225-7.382,11.449-11.9,18.529-17.023,29.225a202.847,202.847,0,0,0-12.654,33.142c-1.808-1.958-3.164-2.26-4.067-2.26-4.369.151-7.833,8.436-13.106,25.459-7.683,24.254-9.189,20.638-13.106,35.7-7.683,29.527-4.218,51.672-5.574,51.672-.151,0,.151-.753.452-2.109,2.109-13.407-4.067-30.581-7.231-44.44-4.821-21.542-1.507-31.636-10.244-37.661a16.687,16.687,0,0,0-7.833-2.862c-4.067-13.709-6.628-24.706-8.285-32.238a77.511,77.511,0,0,0-4.821-15.667c-1.356-3.163-7.231-16.421-11.75-15.667-4.971.753-4.369,17.776-7.532,18.077s-4.67-17.625-14.161-38.565c-.753-1.808-15.516-33.9-25.76-31.786-3.465.753-5.423,4.369-6.629,7.382Z" transform="translate(-559.646 1210.997)" fill="#abc2a6"/>
        <path id="Path_875" data-name="Path 875" d="M862.063,944.5a180.764,180.764,0,0,0,0,49.11c1.506,10.846,7.984,30.581,21.09,70.05,8.587,26.062,11.3,32.991,12.955,37.059,6.327,15.366,11.148,24.254,9.943,25.007-2.712,1.657-31.033-43.235-35.1-40.975-2.26,1.356,3.917,18.529,12.052,32.991,6.176,11,15.516,21.844,34.046,43.085,14.462,16.571,17.023,18.68,18.078,18.077,2.26-1.356-5.273-15.366-15.065-40.072-12.955-32.69-19.433-49.562-18.078-68.092,1.356-17.324,7.08-16.42,11-37.963,6.327-34.5-3.013-66.134-7.08-65.983-.9,0-1.808,1.507-7.984,37.963-4.971,29.225-5.875,36.908-7.984,37.059-3.465.151-5.725-20.488-14.01-51.973-4.971-19.735-10.244-35.251-13.859-45.344Z" transform="translate(-636.025 1215.893)" fill="#abc2a6"/>
        <path id="Path_900" data-name="Path 900" d="M1116.38,1134.42c-.151,0-.452-1.205-.9-3.465s-1.054-5.574-1.958-9.943c-1.657-8.738-3.917-21.392-6.779-37.511-.753-4.067-1.356-8.135-2.26-12.654-.753-4.369-1.657-8.888-4.067-12.654a17.354,17.354,0,0,0-2.109-2.561,9.261,9.261,0,0,0-2.862-1.808c-1.054-.452-2.26-1.054-3.465-1.657a8.373,8.373,0,0,1-3.163-3.314,11.177,11.177,0,0,1-1.205-4.218c-.3-1.356-.452-2.561-.753-3.917-.452-2.561-1.054-5.273-1.657-7.984a175.278,175.278,0,0,0-11-32.841c-1.205-2.712-2.561-5.574-3.917-8.285a7.124,7.124,0,0,0-2.41-3.013,2.532,2.532,0,0,0-2.712-.151,6.151,6.151,0,0,0-2.41,2.712,2.143,2.143,0,0,0-.3.9,4.451,4.451,0,0,0-.3,1.356,22.074,22.074,0,0,0-.3,4.519,22,22,0,0,1-1.205,6.026c-.151.9-.452,1.657-.753,2.862l-.15.452v.151l-.151.3-.452.6c-.753-2.712-1.657-5.423-2.41-7.984a41.6,41.6,0,0,1-1.205-4.068l-.6-1.958-.6-1.506c-1.055-2.862-2.109-5.725-3.314-8.737a160.892,160.892,0,0,0-8.286-17.023,187.924,187.924,0,0,0-10.395-16.42c-.9-1.356-1.958-2.712-2.862-3.917-1.055-1.356-2.109-2.561-3.013-3.917-1.958-2.41-4.519-4.67-7.08-5.273a5.013,5.013,0,0,0-4.519,1.356,10.061,10.061,0,0,0-2.26,5.122,27.866,27.866,0,0,0-.3,6.176c.151,2.26.151,4.369.3,6.629.151,4.369.452,8.737.753,12.955s.753,8.587,1.205,12.654a389.86,389.86,0,0,0,20.639,90.237,368.849,368.849,0,0,0,14.613,35.552c1.205,2.712,2.561,5.272,3.766,7.833s2.561,4.971,3.766,7.231c2.41,4.67,4.971,9.039,7.08,13.106,4.67,8.135,8.888,15.065,11.9,20.94a96.323,96.323,0,0,1,6.026,14.01c.452,1.657.9,3.013,1.054,3.766.151.9.3,1.356.151,1.356s-.753-1.657-1.958-4.971a110.8,110.8,0,0,0-6.478-13.558c-3.164-5.725-7.532-12.5-12.353-20.638-2.41-4.067-4.971-8.285-7.382-13.106-1.205-2.41-2.561-4.821-3.917-7.231-1.205-2.561-2.561-5.122-3.917-7.683-5.122-10.7-10.395-22.446-15.215-35.552a372.314,372.314,0,0,1-12.8-42.482,389.047,389.047,0,0,1-8.436-48.357c-.452-4.218-.9-8.436-1.205-12.8s-.6-8.737-.753-13.106c-.151-2.26-.151-4.369-.3-6.628a26.85,26.85,0,0,1,.452-6.93,13.2,13.2,0,0,1,3.164-6.93,8.486,8.486,0,0,1,7.833-2.41,14.352,14.352,0,0,1,5.273,2.561,22.251,22.251,0,0,1,3.766,3.766c2.109,2.712,4.218,5.273,6.177,7.984a198.619,198.619,0,0,1,10.7,16.872,168.859,168.859,0,0,1,8.436,17.475c1.205,3.013,2.41,5.875,3.465,8.888l.3.9.151.6a3.551,3.551,0,0,1,.3,1.205l.151.3c0,.151,0,.3.151.151,0-.151.151-.452.151-.6a4.171,4.171,0,0,1,.151-1.356.906.906,0,0,1,.151-.6s.151-.6.3-1.055a5.341,5.341,0,0,1,.6-1.356,9.619,9.619,0,0,1,3.917-4.218,7.517,7.517,0,0,1,3.163-.753,6.55,6.55,0,0,1,3.013,1.055,13.468,13.468,0,0,1,3.465,4.369c1.506,2.862,2.712,5.725,3.917,8.436a178.331,178.331,0,0,1,11,33.594c.6,2.712,1.054,5.423,1.657,8.135.151,1.356.452,2.712.6,3.917a10.683,10.683,0,0,0,.9,3.314c.753,1.808,3.013,2.712,5.423,3.917a17.1,17.1,0,0,1,3.465,2.26,16,16,0,0,1,2.561,3.013,27.026,27.026,0,0,1,2.862,6.93,59.967,59.967,0,0,1,1.356,6.779c.753,4.369,1.356,8.587,1.958,12.654,2.561,16.119,4.369,28.773,5.725,37.661.6,4.369,1.054,7.833,1.356,10.093a19.793,19.793,0,0,0-.452,3.465Z" transform="translate(-560.88 1210.514)" stroke="#000" stroke-miterlimit="10" stroke-width="0.75"/>
        <path id="Path_901" data-name="Path 901" d="M1085.877,1169.274c-.3,0-1.054-2.712-2.109-7.833-.6-2.561-1.205-5.574-1.958-9.189s-1.657-7.683-2.712-12.052c-1.054-4.519-2.109-9.34-3.465-14.613-1.205-5.273-2.862-10.846-4.369-16.722-3.314-11.75-7.08-24.555-11.449-37.812s-9.039-25.911-13.408-37.209c-2.26-5.574-4.369-11-6.478-15.968s-4.067-9.641-5.875-13.859-3.616-7.984-4.971-11.3c-1.507-3.314-2.712-6.176-3.766-8.587-2.109-4.67-3.164-7.382-3.013-7.532.3-.151,1.657,2.26,4.218,6.779,1.205,2.26,2.712,4.971,4.369,8.286s3.615,6.93,5.574,11.148,4.218,8.737,6.327,13.709c2.26,4.971,4.519,10.395,6.779,15.969,4.519,11.3,9.34,23.953,13.709,37.36s8.135,26.363,11.148,38.113c1.506,5.875,2.862,11.6,4.067,16.872s2.26,10.244,3.164,14.763,1.657,8.587,2.26,12.2,1.054,6.779,1.356,9.34c.6,5.273.9,7.984.6,8.135Zm36.607,67.489v-.9c0-.6.151-1.506.3-2.712a59.087,59.087,0,0,1,2.862-10.395,89.3,89.3,0,0,1,7.984-15.366c3.615-5.724,8.436-11.9,13.709-18.831s11.3-14.311,16.571-23.2a67.322,67.322,0,0,0,6.478-14.613,55.754,55.754,0,0,0,2.109-16.872,41.651,41.651,0,0,1,.753-9.491,31.344,31.344,0,0,1,3.917-8.888c1.657-2.862,3.465-5.423,4.971-8.285a93.231,93.231,0,0,0,4.218-8.738,81.365,81.365,0,0,0,5.574-19.283c.6-3.314.753-6.779-.3-9.641a8.709,8.709,0,0,0-2.712-3.465,4.672,4.672,0,0,0-1.959-.9h-1.205l-.6.151c-.9.151-1.958.3-2.711.452-.151-.3.15-1.055.3-1.657l.452-1.808.6-3.013c.3-1.507.6-2.862.9-4.369.6-2.862,1.205-5.875,1.808-8.737,1.205-5.875,2.26-11.9,3.465-18.078,2.26-12.2,4.369-24.706,6.176-37.511,1.959-12.8,3.616-26.062,5.122-39.469.151-1.657.452-3.465.452-4.821a21.879,21.879,0,0,0-.452-4.519c-.452-1.356-1.054-2.712-1.958-3.163a2.429,2.429,0,0,0-1.356-.452,3.926,3.926,0,0,0-1.657.452,19.154,19.154,0,0,0-3.766,2.862c-1.205,1.055-2.41,2.26-3.615,3.465a81.28,81.28,0,0,0-6.478,7.834,149.686,149.686,0,0,0-12.2,19.885c-3.616,6.779-6.93,13.859-9.943,20.789a291.1,291.1,0,0,0-14.462,42.181l-3.314-1.356a10.993,10.993,0,0,0,1.356-5.273,16.4,16.4,0,0,0-.15-2.712c0-.151-.151-.452-.151-.6v-.151c0-.151-.151-.3-.151-.452s-.151-.3-.151-.452a.147.147,0,0,0-.151-.151l-.151-.151-.452.753c-.753,1.506-1.657,3.013-2.41,4.369-3.615,7.231-7.08,14.462-10.093,21.693a261.859,261.859,0,0,0-13.708,42.934,274.752,274.752,0,0,0-6.177,76.679l.3,4.369-2.561-3.616c-2.26-3.164-2.712-6.779-3.766-9.641-.3-.753-.452-1.506-.753-2.109a7.115,7.115,0,0,0-1.055-1.808,11.388,11.388,0,0,0-3.163-2.862,4.423,4.423,0,0,0-3.615-.452,4.486,4.486,0,0,0-2.712,2.26c-1.205,2.26-1.356,5.122-1.657,7.833a112.75,112.75,0,0,0,1.054,27.568,148.368,148.368,0,0,0,3.766,17.023c1.055,3.766,1.808,5.875,1.657,5.875a13.994,13.994,0,0,1-.753-1.356c-.452-.9-.9-2.41-1.657-4.218a107.464,107.464,0,0,1-4.369-17.023,121.054,121.054,0,0,1-1.657-28.02c.151-2.712.151-5.725,1.657-8.587a6.181,6.181,0,0,1,3.917-3.314,7.053,7.053,0,0,1,5.273.6,10.712,10.712,0,0,1,3.917,3.465l1.356,2.26c.3.753.6,1.657.9,2.41,1.054,3.163,1.657,6.478,3.465,9.039l-2.26.753a273.159,273.159,0,0,1,5.574-77.582,282.713,282.713,0,0,1,13.558-43.537c2.862-7.382,6.478-14.763,10.093-21.994,1.205-2.109,2.26-4.218,3.465-6.327l.6-1.205c.151-.452.452-.6.6-.9l1.205-1.808.151-.151.151.151.3.452.6,1.055c.452.6.753,1.356,1.205,1.958.3.753.753,1.506,1.054,2.41a10.36,10.36,0,0,0,.452,1.205,1.912,1.912,0,0,1,.151.9,26.894,26.894,0,0,1,.3,3.465,15.17,15.17,0,0,1-1.808,6.779l-6.779,12.654,3.615-14.01a276.024,276.024,0,0,1,14.613-42.783c3.013-7.08,6.478-14.161,10.093-21.09a150.617,150.617,0,0,1,12.5-20.337,88.206,88.206,0,0,1,6.779-8.135c1.205-1.205,2.561-2.561,3.766-3.615a17.552,17.552,0,0,1,4.519-3.314,6.489,6.489,0,0,1,6.779.3,9.236,9.236,0,0,1,3.314,5.273,23.4,23.4,0,0,1,.6,5.574c0,1.958-.3,3.465-.452,5.273-1.507,13.408-3.314,26.664-5.273,39.469s-4.067,25.459-6.327,37.661c-1.205,6.176-2.26,12.052-3.465,18.077-.6,3.013-1.205,5.875-1.808,8.888-.3,1.506-.6,2.862-.9,4.369l-.3,1.356v.3c0,.151-.151.3,0,.151h.9l.452.151a10.868,10.868,0,0,1,3.013,1.356,9.881,9.881,0,0,1,3.917,4.971c1.506,3.917,1.054,7.834.452,11.3a96.325,96.325,0,0,1-5.875,20.036,84.345,84.345,0,0,1-4.519,9.039c-1.657,2.862-3.465,5.574-4.971,8.285a38.487,38.487,0,0,0-3.615,8.135,33.148,33.148,0,0,0-.753,8.738v4.519c-.151,1.506-.151,3.013-.452,4.519a37.7,37.7,0,0,1-.753,4.369c-.3,1.507-.753,2.862-1.054,4.218a76.311,76.311,0,0,1-6.779,15.065c-5.423,9.039-11.6,16.42-17.023,23.2s-10.244,12.8-14.01,18.379a91.472,91.472,0,0,0-8.285,14.914c-3.917,8.436-4.218,13.558-4.52,13.408Z" transform="translate(-554.029 1210.911)" stroke="#000" stroke-miterlimit="10" stroke-width="0.75"/>
        <path id="Path_902" data-name="Path 902" d="M1277.77,992.291c.151.151-1.657,3.164-5.273,8.436-.9,1.356-1.958,2.862-3.013,4.369-1.054,1.657-2.109,3.465-3.314,5.423-2.41,3.917-5.122,8.135-7.833,13.257-1.356,2.561-2.862,5.122-4.369,7.834s-2.862,5.724-4.369,8.737c-3.164,5.875-5.875,12.654-8.888,19.433-5.725,14.01-11.449,29.527-16.42,46.248s-8.888,32.841-12.2,47.6c-1.657,7.382-3.163,14.462-4.369,20.94-1.356,6.628-2.561,12.8-3.616,18.379-2.109,11.3-3.917,20.337-5.122,26.664s-1.959,9.792-2.26,9.641c-.3,0,0-3.615.9-9.943.753-6.327,2.109-15.516,3.917-26.815q1.356-8.587,3.164-18.529c1.205-6.628,2.561-13.709,4.067-21.09,3.164-14.914,6.93-31.184,12.052-47.905a486.074,486.074,0,0,1,16.722-46.549c3.164-6.93,6.026-13.558,9.34-19.433,1.506-3.013,3.013-5.875,4.519-8.737,1.657-2.712,3.163-5.273,4.519-7.834,2.862-4.971,5.875-9.34,8.436-13.106,1.356-1.958,2.41-3.615,3.616-5.273,1.205-1.506,2.26-3.013,3.314-4.218,3.917-4.971,6.177-7.683,6.478-7.532Zm-387.159,3.465c.753.151-1.356,12.8-.9,33.293a258.7,258.7,0,0,0,3.013,36,263.817,263.817,0,0,0,10.545,42.783,250.328,250.328,0,0,0,17.776,40.373c6.628,11.9,13.106,22.446,17.174,32.087a155.316,155.316,0,0,1,7.834,23.35c1.506,5.574,2.109,8.737,1.808,8.888-.3,0-1.356-3.013-3.164-8.436-1.958-5.423-4.369-13.408-8.888-22.6-4.369-9.34-10.846-19.584-17.776-31.485a237.658,237.658,0,0,1-28.773-84.362,233.985,233.985,0,0,1-2.41-36.456c0-5.273.452-9.943.6-14.01.452-4.068.753-7.683,1.205-10.545,1.205-5.875,1.808-9.039,1.958-8.888Zm-11.449,2.561c-.3,0-.9-2.862-2.109-8.135a179.421,179.421,0,0,0-6.478-21.994c-1.657-4.519-3.616-9.491-6.026-14.613-.6-1.356-1.205-2.561-1.808-3.917l-.452-.9-.151-.3-.3-.6-.3-.6-.151-.3c0-.151-.151-.3-.151,0,0,.452-.151,1.055-.151,1.506l-.151.753c0,.753-.151,1.506-.151,2.26l-.452,4.971c-.151,1.657-.151,3.314-.3,5.122-.151,1.657-.151,3.465-.151,5.122a210.233,210.233,0,0,0,.753,21.542c.753,7.382,1.808,14.462,3.013,21.241,1.356,6.779,3.013,13.407,4.821,19.433a210.479,210.479,0,0,0,12.353,31.635c2.109,4.369,4.218,8.285,5.875,11.9a62.779,62.779,0,0,1,3.465,9.491c1.356,5.423,1.055,8.436.9,8.436-.3,0-.6-3.013-2.26-8.135a68.323,68.323,0,0,0-3.917-9.039c-1.808-3.465-3.917-7.231-6.327-11.6a183.383,183.383,0,0,1-13.408-31.786c-1.958-6.176-3.616-12.8-5.122-19.734a192.533,192.533,0,0,1-3.164-21.693,216.062,216.062,0,0,1-.753-21.844c0-1.808.151-3.465.151-5.272.151-1.808.151-3.465.3-5.122l.452-4.971c.151-.9.151-1.657.3-2.561.151-1.356.452-2.712.6-4.067.3-2.712.753-5.273,1.055-7.834v-.6l.151.151.452.9.9,1.808c.6,1.205,1.205,2.26,1.808,3.465a33.953,33.953,0,0,1,1.657,3.314l.9,1.657.452,1.055,1.808,4.067c2.26,5.273,4.218,10.395,5.724,15.065a155.516,155.516,0,0,1,5.423,22.6c1.055,5.122,1.205,8.135.9,8.135Z" transform="translate(-638.21 1211.639)" stroke="#000" stroke-miterlimit="10" stroke-width="0.75"/>
        <path id="Path_903" data-name="Path 903" d="M894.621,1074.68c-.3-.151,1.055-2.863,3.013-7.683a149.566,149.566,0,0,0,6.93-21.09,134.651,134.651,0,0,0,4.067-32.389c0-12.353-1.808-25.911-4.369-39.921-.9-4.519-1.657-8.888-2.561-13.257h3.616c-5.423,25.007-10.395,47.152-14.161,63.12-1.808,7.984-3.465,14.311-4.519,18.68-1.205,4.369-1.808,6.779-2.109,6.628s0-2.561.753-6.93c.753-4.52,1.958-10.847,3.465-18.831,3.164-15.968,7.683-38.264,12.955-63.271L903.509,951l1.808,8.737c.9,4.369,1.808,8.737,2.561,13.257,2.561,14.161,4.369,28.02,4.068,40.674a122.887,122.887,0,0,1-4.971,33.142,110.433,110.433,0,0,1-8.135,20.94c-2.26,4.67-3.917,7.08-4.218,6.93Zm16.119,61.313c-.151.151-1.808-1.807-4.519-5.423s-6.478-8.888-11-15.516c-2.26-3.314-4.821-6.93-7.532-10.847a125.118,125.118,0,0,0-9.189-11.75,66.95,66.95,0,0,0-5.725-5.574,9.449,9.449,0,0,0-1.657-1.205c-.151-.151-.3-.151-.452-.3h-.151v1.356l.151.6c.3,1.356.452,2.862.753,4.369s.6,2.862.9,4.369c.452,1.506.753,2.862,1.205,4.369a106.62,106.62,0,0,0,14.613,30.581,111,111,0,0,0,18.68,20.638c3.013,2.561,5.875,4.971,8.285,7.08a41.4,41.4,0,0,1,5.725,6.176c2.712,3.766,3.465,6.177,3.314,6.327-.3.151-1.356-2.109-4.369-5.423a54.1,54.1,0,0,0-5.875-5.423c-2.41-1.958-5.423-4.218-8.587-6.628a96.481,96.481,0,0,1-19.735-20.638,103.114,103.114,0,0,1-15.366-31.635c-.452-1.507-.753-3.013-1.205-4.52-.3-1.506-.6-3.013-1.054-4.519-.3-1.507-.452-3.013-.753-4.519l-.151-.6c0-.3-.151-.6-.151-.9l-.151-1.808a29.267,29.267,0,0,1-.3-3.615l-.151-1.808v-.753h.151l.753.452c1.055.6,2.109,1.356,3.013,1.958,1.055.753,1.958,1.356,2.862,1.959,1.055.9,1.506,1.205,2.109,1.657a55.794,55.794,0,0,1,6.026,5.875A93.442,93.442,0,0,1,890.4,1102.7c2.561,3.917,4.971,7.683,7.08,11.148,4.369,6.779,7.834,12.353,10.093,16.27,2.109,3.465,3.314,5.724,3.164,5.875Z" transform="translate(-633.031 1219.186)" stroke="#000" stroke-miterlimit="10" stroke-width="0.75"/>
      </g>
      <path id="Path_1342" data-name="Path 1342" d="M2179.113,1997.953l-40.463,3.178,6.279-21.612.8,10.3,8.469-49.7,6.063,36.992,2.947-8.993Z" transform="translate(61.22 136.779)" fill="#549bec"/>
      <path id="Path_1382" data-name="Path 1382" d="M37-14.5,724.273,0a37,37,0,0,1,37,37L748.1,834.775c0,20.435-3.394,98.51-23.829,98.51H37c-20.435,0-18.053-16.275-18.053-36.709L0,37C0,16.565,16.565-14.5,37-14.5Z" transform="translate(2025.83 2025.961)" fill="#c2b59c"/>
      <path id="Path_1367" data-name="Path 1367" d="M2192.488,2021.96c1.006,20.944-10.306,38.5-25.267,39.223s-27.9-15.678-28.907-36.622,10.308-38.5,25.267-39.223S2191.47,2001.026,2192.488,2021.96Z" transform="translate(61.004 161.304)" fill="#8e8268"/>
      <path id="Path_1368" data-name="Path 1368" d="M2412.71,2021.639c.975,20.31-9.995,37.338-24.5,38.033s-27.058-15.2-28.031-35.511,9.995-37.338,24.5-38.034S2411.723,2001.323,2412.71,2021.639Z" transform="translate(181.394 161.732)" fill="#8e8268"/>
      <g id="Group_415" data-name="Group 415" transform="translate(2184.66 2189.379)">
        <path id="Path_1369" data-name="Path 1369" d="M2155.4,2021.2q-8.221,89.661-16.441,179.325c-4.708,51.35-11.912,103.356-9.785,155.021,3.826,92.893,54.756,167.636,143.414,198.95,44.974,15.886,93.595,18.99,140.831,14.791,35.383-3.144,76.815-9.435,96.833-42.621,22.689-37.617-5.481-71.515-32.657-97.18-31.8-30.027-102.551-51.671-103.756-101.871-.825-34.377,23.736-62.23,43.883-87.294a677.844,677.844,0,0,0,46.211-64.342c25.338-40.383,66.531-101.433,56.972-151.652-2.47-12.973-23.186-11.52-20.688,1.6,8.114,42.631-28.356,97.326-49.881,132.771-22.621,37.247-52.948,68.488-76.281,104.995-17.559,27.471-28.5,62.594-14.478,94.02s48.17,45.009,74.726,63.4c18.685,12.935,37.008,28.583,50.792,46.734,23.031,30.337,8.437,59.4-24.67,72.041-41.415,15.809-97.519,13.276-140.227,5.671-97.6-17.379-164.611-86.728-170.14-186.766-2.937-53.141,4.93-106.9,9.774-159.74q7.972-86.944,15.943-173.891c1.206-13.181-19.157-17.239-20.375-3.957Z" transform="translate(-2128.791 -2013.034)" fill="#6f6249"/>
      </g>
      <path id="Path_1370" data-name="Path 1370" d="M2519.35,2857.051l43.456-50.707,34.143-20.827-28.9-909.117-48.7,47.3Z" transform="translate(267.799 102.202)" fill="#887b62"/>
      <path id="Path_1371" data-name="Path 1371" d="M2577.223,2795.094l-31.047-69.637-15.065-819.438,30.559-29.618Z" transform="translate(274.18 102.202)" fill="#c2b59c" opacity="0.1"/>
      <rect id="Rectangle_226" data-name="Rectangle 226" width="761.273" height="933.286" transform="translate(2025.83 2025.961)" fill="none" stroke="#333" stroke-width="8"/>
      <path id="Path_1377" data-name="Path 1377" d="M2192.488,2021.96c1.006,20.944-10.306,38.5-25.267,39.223s-27.9-15.678-28.907-36.622,10.308-38.5,25.267-39.223S2191.47,2001.026,2192.488,2021.96Z" transform="translate(61.004 161.303)" fill="none" stroke="#333" stroke-width="8"/>
      <path id="Path_1378" data-name="Path 1378" d="M2412.71,2021.639c.975,20.31-9.995,37.338-24.5,38.033s-27.058-15.2-28.031-35.511,9.995-37.338,24.5-38.034S2411.723,2001.323,2412.71,2021.639Z" transform="translate(181.395 161.73)" fill="none" stroke="#333" stroke-width="8"/>
      <g id="Group_419" data-name="Group 419" transform="translate(2184.66 2189.379)">
        <path id="Path_1369-2" data-name="Path 1369" d="M2155.4,2021.2q-8.221,89.661-16.441,179.325c-4.708,51.35-11.912,103.356-9.785,155.021,3.826,92.893,54.756,167.636,143.414,198.95,44.974,15.886,93.595,18.99,140.831,14.791,35.383-3.144,76.815-9.435,96.833-42.621,22.689-37.617-5.481-71.515-32.657-97.18-31.8-30.027-102.551-51.671-103.756-101.871-.825-34.377,23.736-62.23,43.883-87.294a677.844,677.844,0,0,0,46.211-64.342c25.338-40.383,66.531-101.433,56.972-151.652-2.47-12.973-23.186-11.52-20.688,1.6,8.114,42.631-28.356,97.326-49.881,132.771-22.621,37.247-52.948,68.488-76.281,104.995-17.559,27.471-28.5,62.594-14.478,94.02s48.17,45.009,74.726,63.4c18.685,12.935,37.008,28.583,50.792,46.734,23.031,30.337,8.437,59.4-24.67,72.041-41.415,15.809-97.519,13.276-140.227,5.671-97.6-17.379-164.611-86.728-170.14-186.766-2.937-53.141,4.93-106.9,9.774-159.74q7.972-86.944,15.943-173.891c1.206-13.181-19.157-17.239-20.375-3.957Z" transform="translate(-2128.791 -2013.034)" fill="none" stroke="#333" stroke-width="8"/>
      </g>
      <path id="Path_1379" data-name="Path 1379" d="M2519.35,2857.051l43.456-50.707,43.44-13.868-38.2-916.076-48.7,47.3Z" transform="translate(267.799 102.201)" fill="none" stroke="#333" stroke-width="8"/>
      <path id="Path_1380" data-name="Path 1380" d="M2599.865,2792.476l-43.44,13.868-25.314-900.326,30.559-29.618Z" transform="translate(274.18 102.201)" fill="none" stroke="#333" stroke-width="8" opacity="0.1"/>
    </g>
    <path id="Path_1335" data-name="Path 1335" d="M910.384,2490.13h858.529c-55.692-12.937-206.536-20.248-258.448-21.341-9.7-30.616-25.062-26.233-82.982-16.8,73.377-66.916,54.269-138.043-73.7-95.193,146.166-198.987-70.993-233.946-104.455-237.926-42.162-5.028-225.266,9.085-122.539,216.3-124.447-51.65-158.493,9.4-64.572,116.82C972.491,2456.19,940.655,2466.72,910.384,2490.13Z" transform="translate(112.112 109.62)" fill="#83a87f"/>
    <g id="Path_1374" data-name="Path 1374" transform="translate(112.111 109.621)" fill="none">
      <path d="M910.384,2490.13h858.529c-55.692-12.937-171.086-28.255-223-29.348-9.7-30.616-36.589-29.973-94.509-20.545,73.377-66.916,50.484-132.657-77.484-89.807,146.166-198.987-80.42-244.465-113.882-248.445-42.162-5.028-235.978,25.965-133.251,233.179-124.447-51.65-158.493,9.4-64.572,116.82C972.491,2456.19,940.655,2466.72,910.384,2490.13Z" stroke="none"/>
      <path d="M 1678.281860351562 2482.1298828125 C 1628.812133789062 2474.97900390625 1576.224609375 2469.421875 1545.74658203125 2468.7802734375 L 1540.019409179688 2468.65966796875 L 1538.288818359375 2463.198974609375 C 1533.449462890625 2447.929443359375 1524.258666992188 2442.517578125 1503.166625976562 2442.517578125 C 1489.126708984375 2442.517578125 1470.60986328125 2445.216552734375 1452.691162109375 2448.13330078125 L 1426.134887695312 2452.455810546875 L 1446.015258789062 2434.325927734375 C 1475.303588867188 2407.61669921875 1489.941650390625 2379.295654296875 1483.307250976562 2362.17529296875 C 1478.95849609375 2350.95263671875 1464.859497070312 2344.772216796875 1443.607421875 2344.772216796875 C 1425.2978515625 2344.772216796875 1402.706909179688 2349.22802734375 1376.4619140625 2358.01611328125 L 1352.5390625 2366.02685546875 L 1367.474365234375 2345.694091796875 C 1411.14453125 2286.242431640625 1424.530883789062 2235.920166015625 1407.261474609375 2196.125244140625 C 1381.520751953125 2136.809814453125 1291.578979492188 2113.792724609375 1259.092651367188 2109.928955078125 C 1256.731201171875 2109.647216796875 1253.831909179688 2109.49853515625 1250.510864257812 2109.49853515625 C 1218.858276367188 2109.49853515625 1150.927978515625 2122.505615234375 1120.387939453125 2171.733154296875 C 1096.159423828125 2210.786865234375 1100.724609375 2264.57763671875 1133.956420898438 2331.61083984375 L 1143.437622070312 2350.735595703125 L 1123.72216796875 2342.552978515625 C 1095.296020507812 2330.7548828125 1070.376586914062 2324.51904296875 1051.657958984375 2324.51904296875 C 1039.75244140625 2324.51904296875 1024.3935546875 2327.08935546875 1018.833862304688 2339.33544921875 C 1011.484069824219 2355.5244140625 1020.603393554688 2392.235595703125 1068.239501953125 2446.718505859375 L 1079.15185546875 2459.19921875 L 1062.591552734375 2459.975341796875 C 995.0204467773438 2463.142578125 961.6629638671875 2470.004638671875 937.6306762695312 2482.1298828125 L 1678.281860351562 2482.1298828125 M 1768.9130859375 2490.1298828125 L 910.3839721679688 2490.1298828125 C 940.655029296875 2466.719970703125 972.4910278320312 2456.18994140625 1062.216918945312 2451.984130859375 C 968.2958984375 2344.563720703125 1002.342102050781 2283.513671875 1126.788940429688 2335.1640625 C 1024.06201171875 2127.95068359375 1217.878173828125 2096.95751953125 1260.039916992188 2101.985107421875 C 1293.501831054688 2105.965087890625 1520.087890625 2151.443115234375 1373.921875 2350.43017578125 C 1501.89013671875 2307.58056640625 1524.782836914062 2373.321044921875 1451.405883789062 2440.237060546875 C 1509.325561523438 2430.80908203125 1536.212036132812 2430.166015625 1545.914916992188 2460.781982421875 C 1597.826904296875 2461.875 1713.220947265625 2477.19287109375 1768.9130859375 2490.1298828125 Z" stroke="none" fill="#333"/>
    </g>
  </g>
</svg>
