<svg width="75" height="110" viewBox="0 0 75 110" fill="none" xmlns="http://www.w3.org/2000/svg">
<path fill-rule="evenodd" clip-rule="evenodd" d="M8.5031 26.2945C5.7143 25.8378 3.5363 26.0597 1.9691 26.9604C-0.381596 28.3115 1.2292 45.7216 2.7472 46.8546C3.385 47.3306 15.4867 48.6946 29.3332 49.1066C48.4468 49.6736 70.9618 49.1757 71.9228 48.7787C73.0268 48.3227 73.2958 47.6806 72.7278 46.8546C46.1578 46.9536 28.5379 45.5937 19.867 42.7751C11.196 39.9567 7.4081 34.4632 8.5031 26.2945Z" fill="#FFA126"/>
<path fill-rule="evenodd" clip-rule="evenodd" d="M13.8257 48.4228L8.12557 47.9878C7.95277 84.3628 9.04797 103.857 11.4113 106.467C14.9562 110.383 56.3186 109.83 65.9616 105.955C66.5436 104.863 66.8256 103.98 66.8046 103.306C44.1046 106.517 29.304 104.258 22.4038 96.5268C15.5037 88.7958 12.6443 72.7618 13.8257 48.4228Z" fill="#FFA126"/>
<path fill-rule="evenodd" clip-rule="evenodd" d="M30.8746 22.5202C26.6365 21.5161 23.514 20.3461 21.5072 19.0102C18.4969 17.0062 14.1379 14.5898 12.6911 14.5898C12.0791 14.5898 10.3226 15.6464 9.82078 17.1225C8.93378 19.732 9.58888 21.8338 10.627 21.8338C11.3351 21.8338 11.9151 19.6349 14.7395 19.5149C20.1758 19.2841 24.1112 22.0467 26.9346 22.8659C29.8796 23.7203 31.1929 23.6051 30.8746 22.5202Z" fill="#FFA126"/>
<path fill-rule="evenodd" clip-rule="evenodd" d="M13.3334 0.339844C11.5503 1.07974 9.93319 2.61214 8.48219 4.93704C6.66869 7.84274 5.27438 13.0715 5.12718 14.0126C4.50958 17.9604 5.26529 21.9267 6.32629 22.9872C8.90059 25.5601 16.5061 25.6728 19.7666 25.4209C21.9403 25.2529 23.7409 24.6426 25.1684 23.5898C15.5189 24.9767 9.76168 24.2267 7.89658 21.3398C6.54138 19.2422 6.89739 13.2938 9.19829 7.00274C10.088 4.57024 11.4663 2.34924 13.3334 0.339844Z" fill="#FFA126"/>
<path fill-rule="evenodd" clip-rule="evenodd" d="M36.182 20.5439C34.4167 20.7351 33.4186 21.0559 33.1878 21.5063C32.9571 21.9567 32.7794 23.0643 32.6548 24.8291L40.6918 24.423C38.1858 24.6154 36.5444 24.2876 35.7678 23.4396C34.9911 22.5917 35.1292 21.6264 36.182 20.5439Z" fill="#FFA126"/>
<path fill-rule="evenodd" clip-rule="evenodd" d="M29.6548 23.5898C23.4464 23.9999 19.7236 25.081 18.4862 26.8331C17.2489 28.5851 16.4717 33.504 16.1548 41.5898C16.6007 41.0501 17.1562 40.2478 17.8212 39.1832C18.8187 37.5862 18.4862 29.9846 19.9048 27.7674C21.3516 25.5061 24.6016 24.1136 29.6548 23.5898Z" fill="#FFA126"/>
<path fill-rule="evenodd" clip-rule="evenodd" d="M41.9209 24.2629C48.0579 25.5821 51.3689 26.6307 51.8549 27.4087C52.1549 27.889 53.0829 29.716 53.4069 33.0168C53.5409 34.3802 53.5409 36.9879 53.4069 40.8398C54.4219 39.4504 55.1869 38.2635 55.7019 37.2791C56.4739 35.8025 55.0519 26.967 53.4069 25.7027C51.9029 24.5464 48.0739 23.8409 41.9209 23.5864V24.2629Z" fill="#FFA126"/>
<path fill-rule="evenodd" clip-rule="evenodd" d="M44.7586 22.9282C44.2336 22.3708 45.7716 22.199 47.7416 21.5683C49.9976 20.8464 52.8186 19.6673 54.2816 18.9226C57.0216 17.5271 61.8456 15.4285 63.2896 18.1985C64.7346 20.9684 64.2396 23.5898 62.7626 23.5898C61.2866 23.5898 62.6516 20.5743 58.9406 20.2148C55.2296 19.8553 45.3806 23.5898 44.7586 22.9282Z" fill="#FFA126"/>
<path fill-rule="evenodd" clip-rule="evenodd" d="M48.0438 16.0898C46.6308 18.2255 45.5728 19.5986 44.8698 20.2093C44.1678 20.8199 43.0958 21.4867 41.6548 22.2097L41.9208 23.4397C46.6658 23.5918 49.7118 23.8061 51.0598 24.0827C52.4068 24.3592 54.1958 24.611 56.4258 24.8379L63.8628 25.3898C65.1098 25.8071 65.9798 25.8071 66.4708 25.3898C66.9628 24.9725 67.5528 24.0715 68.2428 22.6866C66.9658 23.9955 64.6038 24.4609 61.1548 24.0827C59.0198 23.8485 54.0208 22.6652 49.4398 22.8398C47.1438 22.9273 45.1168 21.6242 46.6738 18.9849C46.9978 18.4351 47.4548 17.4701 48.0438 16.0898Z" fill="#FFA126"/>
<path fill-rule="evenodd" clip-rule="evenodd" d="M33.1641 24.8231C32.0739 24.7194 31.3415 24.8082 30.9668 25.0897C30.4048 25.5118 29.1816 33.2184 29.4182 37.279C29.6548 41.3396 29.8428 49.0337 30.4048 49.0707C30.7795 49.0957 31.986 49.0957 34.0243 49.0707C32.7411 46.2487 32.0995 41.7082 32.0995 35.4505C32.0995 29.1928 32.4543 25.6504 33.1641 24.8231Z" fill="#FFA126"/>
<path fill-rule="evenodd" clip-rule="evenodd" d="M32.6533 49.0708H30.0168C29.6508 57.6298 29.562 64.9318 29.7502 70.9778C30.0326 80.0468 31.0883 108.711 32.1262 109.271C32.8181 109.644 33.7864 109.602 35.0312 109.146C33.3832 99.1338 32.4871 87.1478 32.3427 73.1888C32.1984 59.2298 32.3019 51.1908 32.6533 49.0708Z" fill="#FFA126"/>
<path d="M68.178 49.0351C68.16 50.0651 68.551 102.098 65.962 105.955C63.372 109.813 15.2098 110.644 11.4118 106.467C8.87979 103.682 7.70859 67.1361 8.14599 48.4141" stroke="#323A48" stroke-linecap="round" stroke-linejoin="round"/>
<path d="M30.3784 49.1066C28.6386 47.6236 30.3784 107.652 32.1183 109.036M44.7138 109.035C46.0708 105.981 46.8188 52.6836 45.4658 49.4006" stroke="#323A48" stroke-linecap="round" stroke-linejoin="round"/>
<path d="M38.8848 49.1066C22.293 48.8426 3.7676 48.2196 2.7475 46.8546C0.685601 44.0945 -0.690702 29.1369 1.9694 26.9604C2.7402 26.3298 8.8205 25.78 17.1257 25.3948M61.0899 25.1372C67.6869 25.4379 72.2829 25.9621 72.8699 26.7644C75.2059 29.959 74.0499 47.8116 71.9229 48.7786C70.9939 49.2006 57.1109 49.3136 42.6689 49.1896" stroke="#323A48" stroke-linecap="round" stroke-linejoin="round"/>
<path d="M32.5884 24.3394C32.5995 22.1899 32.8499 21.9924 33.3781 21.3198C34.3095 20.1338 40.0182 20.4617 41.1807 22.0725C41.6187 22.6804 41.5997 23.7466 41.5867 24.4964" stroke="#323A48" stroke-linecap="round" stroke-linejoin="round"/>
<path d="M32.6542 22.0411C25.3802 16.9275 20.606 -0.0427467 13.7302 0.513353C7.38089 1.02685 -0.270211 22.4771 8.69859 24.4098" stroke="#323A48" stroke-linecap="round" stroke-linejoin="round"/>
<path d="M41.3179 21.9149C50.3289 18.7115 52.1459 2.77291 59.2649 2.89721C66.7019 3.02701 71.4839 23.5411 66.4709 25.3898" stroke="#323A48" stroke-linecap="round" stroke-linejoin="round"/>
<path d="M30.2709 22.4553C22.5899 20.8552 14.6237 13.6951 11.9419 14.7513C10.1541 15.4554 9.27763 17.2828 9.31253 20.2337" stroke="#323A48" stroke-linecap="round" stroke-linejoin="round"/>
<path d="M44.5605 22.2354C51.4615 21.1571 57.8475 16.2939 61.1745 17.2317C64.5015 18.1695 64.4015 21.996 63.6405 23.172" stroke="#323A48" stroke-linecap="round" stroke-linejoin="round"/>
<path d="M41.9209 23.4399C52.8989 24.2205 58.9179 25.456 59.9799 27.1462C61.0409 28.8364 61.2579 32.9905 60.6299 39.6084L57.7629 33.7741L53.3589 41.0422C53.4589 32.6401 52.7639 27.9574 51.2749 26.9943C49.7869 26.0311 47.2879 25.3095 43.7799 24.8293" stroke="#323A48" stroke-linecap="round" stroke-linejoin="round"/>
<path d="M45.0328 49.3847C45.7898 48.3317 46.7318 28.1292 44.6458 25.089C44.1768 24.4055 31.9243 24.4963 31.1476 24.8534C28.7172 25.9708 28.7865 47.5837 29.9739 49.1197" stroke="#323A48" stroke-linecap="round" stroke-linejoin="round"/>
<path d="M31.4166 23.706C23.7765 23.6682 19.3369 24.7913 18.0979 27.0754C16.8589 29.3595 16.1056 34.1967 15.8379 41.5869L19.2876 36.1861L23.6372 41.723C23.8522 30.7063 26.5418 25.059 31.7061 24.7812" stroke="#323A48" stroke-linecap="round" stroke-linejoin="round"/>
<path d="M16.1548 3.33984C17.3479 4.05824 18.3303 5.07554 19.102 6.39174" stroke="#323A48" stroke-linecap="round" stroke-linejoin="round"/>
<path d="M37.9048 22.0898C38.7915 22.2108 39.2871 22.4695 39.3915 22.8659" stroke="#323A48" stroke-linecap="round" stroke-linejoin="round"/>
<path d="M59.8276 5.44775C61.4946 6.17425 62.5726 7.38545 63.0586 9.08135" stroke="#323A48" stroke-linecap="round" stroke-linejoin="round"/>
</svg>
