<svg width="518" height="480" viewBox="0 0 518 480" fill="none" xmlns="http://www.w3.org/2000/svg">
<g clip-path="url(#clip0_864_2677)">
<mask id="path-1-outside-1_864_2677" maskUnits="userSpaceOnUse" x="0.582031" y="0.919922" width="372" height="379" fill="black">
<rect fill="white" x="0.582031" y="0.919922" width="372" height="379"/>
<path d="M315.107 9.93046C327.705 13.997 338.696 13.3892 351.188 9.31278C355.51 7.99396 358.576 7.63902 363 9.00028C366.406 11.142 368.695 13.084 370 17.0003C370.825 23.3185 368.552 27.9051 366.168 33.7073C364.819 37.5128 364.466 40.9038 364.239 44.9026C363.907 47.8201 362.827 49.7355 361 52.0003C357.862 53.5696 355.462 53.3523 352 53.0003C349.063 51.3128 349.063 51.3128 347 48.0003C346.321 41.9051 346.64 35.9768 348 30.0003C346.864 30.0957 345.727 30.1911 344.555 30.2893C329.795 31.4066 317.361 29.5457 303.241 25.187C282.772 18.8952 259.958 18.4471 240 27.0003C241.65 31.9503 243.3 36.9003 245 42.0003C246.98 41.3403 248.96 40.6803 251 40.0003C254.409 39.5198 257.598 39.4351 261 40.0003C264.14 42.5416 264.842 44.048 265.5 48.0003C264.855 51.8713 263.922 53.3707 261 56.0003C258.367 56.8683 255.712 57.394 253 58.0003C257.5 65.9335 262.172 73.5679 267.813 80.7503C268.268 81.3337 268.724 81.9172 269.193 82.5183C271.569 85.4797 273.927 87.7957 277 90.0003C277.929 89.0664 278.858 88.1326 279.814 87.1704C283.252 83.7146 286.693 80.2621 290.135 76.8106C291.626 75.3147 293.116 73.818 294.605 72.3204C296.742 70.1709 298.883 68.0248 301.024 65.8792C301.692 65.2063 302.359 64.5333 303.047 63.84C303.668 63.2195 304.288 62.5989 304.928 61.9595C305.474 61.411 306.02 60.8625 306.583 60.2974C308.677 58.3809 309.967 58.0047 312.813 57.6253C316 58.0003 316 58.0003 318.875 60.0003C321.105 63.1484 321.609 65.022 321.491 68.8553C320.517 73.1105 317.306 75.6639 314.219 78.5628C313.531 79.2395 312.843 79.9163 312.134 80.6136C309.941 82.762 307.722 84.881 305.5 87.0003C304.005 88.4554 302.512 89.9125 301.02 91.3714C297.367 94.9361 293.691 98.4746 290 102C291.321 104.895 292.415 106.434 294.688 108.813C297 112 297 112 297.063 115.625C295.899 119.324 295.236 120.872 292 123C288.285 123.715 286.04 123.63 282.77 121.649C280.781 120.163 278.871 118.633 277 117C272.899 118.622 270.169 121.577 267.141 124.664C266.592 125.216 266.043 125.768 265.477 126.337C263.73 128.095 261.99 129.86 260.25 131.625C259.065 132.821 257.879 134.016 256.692 135.211C253.789 138.136 250.893 141.066 248 144C249.298 146.934 250.548 148.74 253.055 150.735C253.665 151.223 254.274 151.711 254.902 152.213C255.553 152.721 256.205 153.228 256.875 153.75C257.542 154.277 258.208 154.805 258.894 155.348C263.986 159.33 269.23 162.942 274.707 166.379C277 168 277 168 279 171C279.566 175.363 279.494 177.298 276.938 180.938C273.233 183.539 271.462 183.422 267 183C264.043 181.532 264.043 181.532 261.188 179.5C259.637 178.402 259.637 178.402 258.055 177.282C250.991 172.006 244.321 166.533 238.008 160.371C236.138 158.772 236.138 158.772 234.087 159.224C231.647 160.132 230.435 161.203 228.609 163.051C227.968 163.692 227.328 164.332 226.668 164.992C225.649 166.035 225.649 166.035 224.61 167.098C223.905 167.807 223.201 168.516 222.475 169.246C220.226 171.511 217.988 173.787 215.75 176.063C214.228 177.601 212.704 179.138 211.18 180.674C207.446 184.442 203.72 188.218 200 192C201.277 194.801 202.592 196.836 204.782 198.993C205.618 199.824 205.618 199.824 206.47 200.671C207.069 201.257 207.668 201.842 208.286 202.446C208.902 203.057 209.518 203.668 210.153 204.297C212.118 206.245 214.09 208.185 216.063 210.125C218.038 212.073 220.012 214.022 221.983 215.975C223.209 217.188 224.438 218.399 225.669 219.607C230.857 224.734 230.857 224.734 231.375 229.313C231 233 231 233 228.875 235.938C226 238 226 238 223.063 238.563C216.494 237.356 212.02 232.298 207.508 227.703C206.917 227.11 206.327 226.516 205.718 225.905C203.849 224.024 201.987 222.138 200.125 220.25C198.852 218.967 197.579 217.685 196.305 216.403C193.198 213.274 190.098 210.139 187 207C184.143 208.297 182.09 209.664 179.884 211.889C179.304 212.47 178.724 213.05 178.126 213.648C177.512 214.272 176.898 214.896 176.266 215.539C175.628 216.18 174.99 216.821 174.333 217.481C172.301 219.525 170.275 221.575 168.25 223.625C166.872 225.014 165.493 226.402 164.114 227.789C160.737 231.188 157.367 234.592 154 238C154.933 239.264 155.869 240.525 156.805 241.785C157.326 242.488 157.846 243.191 158.383 243.915C159.884 245.85 161.456 247.647 163.125 249.438C172.011 259.535 179.192 270.885 185.688 282.625C186.205 283.549 186.722 284.473 187.255 285.425C189.902 290.331 191.848 294.381 192 300C190.864 302.377 189.856 304.145 188 306C186.11 306.309 186.11 306.309 183.75 306.438C182.982 306.498 182.214 306.559 181.422 306.621C177.703 305.668 176.035 303.063 174 300C172.51 297.429 171.191 294.789 169.875 292.125C162.873 278.489 153.034 260.689 140 252C131.75 260.25 123.5 268.5 115 277C118.587 281.782 122.177 286.501 125.875 291.188C138.991 308.13 147.373 327.134 155 347C155.858 346.483 156.715 345.966 157.598 345.434C158.742 344.775 159.885 344.116 161.063 343.438C162.188 342.776 163.314 342.115 164.473 341.434C168.586 339.762 170.747 339.875 175 341C177.884 343.588 178.85 345.196 179.563 349C178.792 353.114 177.152 354.254 174 357C171.196 358.831 168.286 360.399 165.313 361.938C164.479 362.372 163.644 362.805 162.785 363.252C131.772 378.925 93.9478 381.837 60.8618 371.185C49.6687 367.303 38.8247 361.99 30.0005 354C29.3289 353.42 28.6573 352.84 27.9653 352.242C11.8205 337.373 3.85703 312.858 2.82345 291.31C2.27834 256.204 2.27834 256.204 7.00045 240C7.18237 239.338 7.36429 238.675 7.55172 237.992C17.0162 204.025 40.9843 176.9 71.2461 159.726C81.9339 153.936 93.0565 150.147 104.754 146.913C117.628 143.264 128.555 137.554 135.903 126.012C140.423 117.594 142.989 108.841 145.61 99.6995C155.377 66.0028 179.946 37.1335 210.274 20.0237C211.514 19.3448 212.756 18.6703 214 18.0003C214.881 17.5232 214.881 17.5232 215.779 17.0364C246.871 0.533061 282.134 -1.04616 315.107 9.93046ZM193.688 54.1253C192.801 55.074 191.914 56.0228 191 57.0003C197.935 86.2584 214.015 110.995 234 133C240.741 127.474 246.808 121.306 252.938 115.125C254.014 114.044 255.09 112.964 256.166 111.883C258.78 109.258 261.391 106.63 264 104C260.501 99.3012 256.947 94.659 253.313 90.0628C247.333 82.4022 242.176 74.2161 237 66.0003C235.582 66.7673 234.166 67.5391 232.75 68.3128C231.962 68.742 231.173 69.1713 230.36 69.6136C227.978 70.9413 227.978 70.9413 225.922 72.6409C222.912 74.7698 220.573 74.4469 217 74.0003C214.563 72.4378 214.563 72.4378 213 70.0003C212.438 66.5628 212.438 66.5628 213 63.0003C216.952 57.55 223.33 54.4463 229 51.0003C228.311 47.0891 227.218 43.4452 225.938 39.6878C225.395 38.0848 225.395 38.0848 224.84 36.4495C224.563 35.6413 224.286 34.833 224 34.0003C213.985 34.0003 200.479 47.3479 193.688 54.1253ZM177 74.0003C167.26 87.6609 162.239 102.825 157.641 118.8C155.644 125.5 153.242 130.993 149.286 136.793C147.665 139.151 147.665 139.151 148 143C149.969 145.454 149.969 145.454 152.5 147.75C153.336 148.549 154.171 149.349 155.032 150.172C155.681 150.775 156.331 151.379 157 152C165.354 148.59 169.218 137.984 172.657 130.266C174.297 126.28 175.728 122.248 177.043 118.145C178 116 178 116 181 114C184.706 113.802 187.471 113.824 191 115C193.956 126.613 187.728 138.525 182.063 148.5C178.768 153.999 175.142 159.109 171 164C172.322 166.933 173.747 168.987 176.04 171.235C176.62 171.808 177.2 172.382 177.797 172.973C178.401 173.559 179.004 174.146 179.625 174.75C180.542 175.653 180.542 175.653 181.477 176.574C182.98 178.054 184.49 179.528 186 181C190.905 176.887 195.522 172.615 200.028 168.071C200.662 167.435 201.295 166.8 201.948 166.146C203.947 164.141 205.943 162.133 207.938 160.125C209.303 158.755 210.668 157.385 212.034 156.016C215.359 152.68 218.68 149.341 222 146C219.951 142.493 217.887 139.674 215.063 136.75C199.909 120.12 189.525 100.278 180.754 79.7278C179.905 77.7816 178.985 75.8815 178 74.0003C177.67 74.0003 177.34 74.0003 177 74.0003ZM128.821 155.727C122.514 159.547 115.932 161.39 108.875 163.375C94.7495 167.509 82.28 172.814 70.0005 181C71.7443 184.488 75.7724 185.253 79.2505 186.688C80.3971 187.188 80.3971 187.188 81.5669 187.698C87.1594 190.039 87.1594 190.039 93.0005 189C95.0175 188.165 97.0159 187.285 99.0005 186.375C105.063 183.66 111.236 181.573 117.563 179.563C127.52 176.364 136.681 172.499 145 166C143.466 162.345 141.251 160.013 138.438 157.25C137.632 156.451 136.827 155.652 135.997 154.828C132.799 151.9 132.229 153.492 128.821 155.727ZM151.688 181.063C138.365 190.555 123.449 195.139 108 200C111.223 203.312 114.638 205.956 118.438 208.563C124.196 212.566 129.557 216.867 134.737 221.596C137.852 224.359 138.648 225 143 225C144.739 223.839 144.739 223.839 146.3 222.155C146.921 221.534 147.541 220.913 148.18 220.274C148.838 219.596 149.495 218.918 150.172 218.219C150.855 217.531 151.537 216.843 152.24 216.134C154.42 213.932 156.585 211.716 158.75 209.5C160.225 208.006 161.7 206.512 163.176 205.02C166.795 201.357 170.401 197.682 174 194C173.052 192.888 172.103 191.777 171.154 190.666C170.625 190.047 170.097 189.428 169.552 188.791C167.544 186.474 165.458 184.253 163.313 182.063C162.193 180.905 162.193 180.905 161.051 179.723C157.229 176.512 155.158 178.409 151.688 181.063ZM49.5005 198.188C44.1847 203.561 40.0991 209.692 36.0005 216C35.508 216.754 35.0156 217.508 34.5083 218.285C33.2523 220.253 33.2523 220.253 32.0005 223C32.3305 223.99 32.6605 224.98 33.0005 226C35.3269 227.044 37.528 227.897 39.938 228.688C40.5844 228.913 41.2309 229.138 41.8969 229.369C45.3701 230.595 45.3701 230.595 49.0005 231C50.4087 228.921 51.7131 226.84 53.0005 224.688C57.6856 217.119 63.0304 209.633 70.2934 204.324C70.8567 203.888 71.4201 203.451 72.0005 203C72.0005 202.34 72.0005 201.68 72.0005 201C69.0221 199.998 66.0426 198.999 63.063 198C62.2128 197.714 61.3627 197.428 60.4868 197.133C59.2735 196.727 59.2735 196.727 58.0356 196.313C57.2867 196.061 56.5379 195.81 55.7663 195.551C52.4991 194.532 51.9347 195.845 49.5005 198.188ZM90.0005 210C79.2975 218.201 70.8172 226.274 64.0005 238C66.7842 240.171 69.6774 242.086 72.6704 243.956C82.7088 250.24 91.9314 257.389 101 265C105.006 263.397 107.678 260.579 110.641 257.555C111.168 257.025 111.695 256.495 112.238 255.949C113.914 254.263 115.582 252.569 117.25 250.875C118.388 249.728 119.526 248.581 120.665 247.434C123.448 244.628 126.226 241.816 129 239C121.283 231.221 113.375 224.611 104.188 218.625C103.26 218.01 102.333 217.396 101.377 216.762C97.6574 214.311 94.0279 211.919 90.0005 210ZM25.0005 241C16.4412 267.675 16.2365 298.584 29.0005 324C37.1953 339.76 48.9578 348.972 65.6684 354.973C83.7035 360.534 102.58 361.583 121.188 358.688C121.953 358.57 122.718 358.453 123.506 358.331C128.623 357.453 133.187 355.946 138 354C134.048 335.306 124.132 317.668 112.875 302.438C112.139 301.437 112.139 301.437 111.388 300.416C110.907 299.782 110.426 299.149 109.93 298.496C109.51 297.941 109.089 297.386 108.656 296.814C106.32 294.255 103.693 292.181 101 290C100.218 290.786 100.218 290.786 99.4194 291.588C94.5074 296.52 89.5929 301.45 84.6757 306.377C82.1477 308.91 79.6206 311.444 77.0957 313.98C74.1943 316.895 71.2889 319.805 68.3833 322.715C67.4749 323.629 66.5665 324.542 65.6306 325.483C64.7899 326.324 63.9492 327.165 63.083 328.031C61.9704 329.147 61.9704 329.147 60.8354 330.286C58.1962 332.752 57.2695 332.986 53.563 333.188C50.0005 333 50.0005 333 47.0005 331C46.0104 327.81 45.5354 326.203 46.0005 323C47.243 321.127 47.243 321.127 48.9734 319.268C49.9352 318.226 49.9352 318.226 50.9165 317.164C54.4272 313.519 57.968 309.91 61.559 306.344C62.3482 305.556 63.1374 304.769 63.9504 303.957C66.4439 301.469 68.9409 298.985 71.438 296.5C73.1407 294.803 74.8431 293.105 76.5454 291.407C80.6944 287.268 84.8463 283.133 89.0005 279C83.9923 268.15 69.0672 260.646 59.0005 255C58.3405 255 57.6805 255 57.0005 255C54.4691 262.172 53.3322 269.247 52.5278 276.778C52.0005 280 52.0005 280 50.0005 283C42.0856 284.532 42.0856 284.532 38.0005 283C35.5629 275.688 37.3752 268.039 38.938 260.75C39.1204 259.866 39.3028 258.982 39.4907 258.071C40.2611 254.361 41.0629 250.671 42.0005 247C40.1071 246.182 38.2107 245.371 36.313 244.563C35.2572 244.11 34.2015 243.658 33.1137 243.192C30.3807 242.146 27.88 241.465 25.0005 241Z"/>
</mask>
<path d="M315.107 9.93046C327.705 13.997 338.696 13.3892 351.188 9.31278C355.51 7.99396 358.576 7.63902 363 9.00028C366.406 11.142 368.695 13.084 370 17.0003C370.825 23.3185 368.552 27.9051 366.168 33.7073C364.819 37.5128 364.466 40.9038 364.239 44.9026C363.907 47.8201 362.827 49.7355 361 52.0003C357.862 53.5696 355.462 53.3523 352 53.0003C349.063 51.3128 349.063 51.3128 347 48.0003C346.321 41.9051 346.64 35.9768 348 30.0003C346.864 30.0957 345.727 30.1911 344.555 30.2893C329.795 31.4066 317.361 29.5457 303.241 25.187C282.772 18.8952 259.958 18.4471 240 27.0003C241.65 31.9503 243.3 36.9003 245 42.0003C246.98 41.3403 248.96 40.6803 251 40.0003C254.409 39.5198 257.598 39.4351 261 40.0003C264.14 42.5416 264.842 44.048 265.5 48.0003C264.855 51.8713 263.922 53.3707 261 56.0003C258.367 56.8683 255.712 57.394 253 58.0003C257.5 65.9335 262.172 73.5679 267.813 80.7503C268.268 81.3337 268.724 81.9172 269.193 82.5183C271.569 85.4797 273.927 87.7957 277 90.0003C277.929 89.0664 278.858 88.1326 279.814 87.1704C283.252 83.7146 286.693 80.2621 290.135 76.8106C291.626 75.3147 293.116 73.818 294.605 72.3204C296.742 70.1709 298.883 68.0248 301.024 65.8792C301.692 65.2063 302.359 64.5333 303.047 63.84C303.668 63.2195 304.288 62.5989 304.928 61.9595C305.474 61.411 306.02 60.8625 306.583 60.2974C308.677 58.3809 309.967 58.0047 312.813 57.6253C316 58.0003 316 58.0003 318.875 60.0003C321.105 63.1484 321.609 65.022 321.491 68.8553C320.517 73.1105 317.306 75.6639 314.219 78.5628C313.531 79.2395 312.843 79.9163 312.134 80.6136C309.941 82.762 307.722 84.881 305.5 87.0003C304.005 88.4554 302.512 89.9125 301.02 91.3714C297.367 94.9361 293.691 98.4746 290 102C291.321 104.895 292.415 106.434 294.688 108.813C297 112 297 112 297.063 115.625C295.899 119.324 295.236 120.872 292 123C288.285 123.715 286.04 123.63 282.77 121.649C280.781 120.163 278.871 118.633 277 117C272.899 118.622 270.169 121.577 267.141 124.664C266.592 125.216 266.043 125.768 265.477 126.337C263.73 128.095 261.99 129.86 260.25 131.625C259.065 132.821 257.879 134.016 256.692 135.211C253.789 138.136 250.893 141.066 248 144C249.298 146.934 250.548 148.74 253.055 150.735C253.665 151.223 254.274 151.711 254.902 152.213C255.553 152.721 256.205 153.228 256.875 153.75C257.542 154.277 258.208 154.805 258.894 155.348C263.986 159.33 269.23 162.942 274.707 166.379C277 168 277 168 279 171C279.566 175.363 279.494 177.298 276.938 180.938C273.233 183.539 271.462 183.422 267 183C264.043 181.532 264.043 181.532 261.188 179.5C259.637 178.402 259.637 178.402 258.055 177.282C250.991 172.006 244.321 166.533 238.008 160.371C236.138 158.772 236.138 158.772 234.087 159.224C231.647 160.132 230.435 161.203 228.609 163.051C227.968 163.692 227.328 164.332 226.668 164.992C225.649 166.035 225.649 166.035 224.61 167.098C223.905 167.807 223.201 168.516 222.475 169.246C220.226 171.511 217.988 173.787 215.75 176.063C214.228 177.601 212.704 179.138 211.18 180.674C207.446 184.442 203.72 188.218 200 192C201.277 194.801 202.592 196.836 204.782 198.993C205.618 199.824 205.618 199.824 206.47 200.671C207.069 201.257 207.668 201.842 208.286 202.446C208.902 203.057 209.518 203.668 210.153 204.297C212.118 206.245 214.09 208.185 216.063 210.125C218.038 212.073 220.012 214.022 221.983 215.975C223.209 217.188 224.438 218.399 225.669 219.607C230.857 224.734 230.857 224.734 231.375 229.313C231 233 231 233 228.875 235.938C226 238 226 238 223.063 238.563C216.494 237.356 212.02 232.298 207.508 227.703C206.917 227.11 206.327 226.516 205.718 225.905C203.849 224.024 201.987 222.138 200.125 220.25C198.852 218.967 197.579 217.685 196.305 216.403C193.198 213.274 190.098 210.139 187 207C184.143 208.297 182.09 209.664 179.884 211.889C179.304 212.47 178.724 213.05 178.126 213.648C177.512 214.272 176.898 214.896 176.266 215.539C175.628 216.18 174.99 216.821 174.333 217.481C172.301 219.525 170.275 221.575 168.25 223.625C166.872 225.014 165.493 226.402 164.114 227.789C160.737 231.188 157.367 234.592 154 238C154.933 239.264 155.869 240.525 156.805 241.785C157.326 242.488 157.846 243.191 158.383 243.915C159.884 245.85 161.456 247.647 163.125 249.438C172.011 259.535 179.192 270.885 185.688 282.625C186.205 283.549 186.722 284.473 187.255 285.425C189.902 290.331 191.848 294.381 192 300C190.864 302.377 189.856 304.145 188 306C186.11 306.309 186.11 306.309 183.75 306.438C182.982 306.498 182.214 306.559 181.422 306.621C177.703 305.668 176.035 303.063 174 300C172.51 297.429 171.191 294.789 169.875 292.125C162.873 278.489 153.034 260.689 140 252C131.75 260.25 123.5 268.5 115 277C118.587 281.782 122.177 286.501 125.875 291.188C138.991 308.13 147.373 327.134 155 347C155.858 346.483 156.715 345.966 157.598 345.434C158.742 344.775 159.885 344.116 161.063 343.438C162.188 342.776 163.314 342.115 164.473 341.434C168.586 339.762 170.747 339.875 175 341C177.884 343.588 178.85 345.196 179.563 349C178.792 353.114 177.152 354.254 174 357C171.196 358.831 168.286 360.399 165.313 361.938C164.479 362.372 163.644 362.805 162.785 363.252C131.772 378.925 93.9478 381.837 60.8618 371.185C49.6687 367.303 38.8247 361.99 30.0005 354C29.3289 353.42 28.6573 352.84 27.9653 352.242C11.8205 337.373 3.85703 312.858 2.82345 291.31C2.27834 256.204 2.27834 256.204 7.00045 240C7.18237 239.338 7.36429 238.675 7.55172 237.992C17.0162 204.025 40.9843 176.9 71.2461 159.726C81.9339 153.936 93.0565 150.147 104.754 146.913C117.628 143.264 128.555 137.554 135.903 126.012C140.423 117.594 142.989 108.841 145.61 99.6995C155.377 66.0028 179.946 37.1335 210.274 20.0237C211.514 19.3448 212.756 18.6703 214 18.0003C214.881 17.5232 214.881 17.5232 215.779 17.0364C246.871 0.533061 282.134 -1.04616 315.107 9.93046ZM193.688 54.1253C192.801 55.074 191.914 56.0228 191 57.0003C197.935 86.2584 214.015 110.995 234 133C240.741 127.474 246.808 121.306 252.938 115.125C254.014 114.044 255.09 112.964 256.166 111.883C258.78 109.258 261.391 106.63 264 104C260.501 99.3012 256.947 94.659 253.313 90.0628C247.333 82.4022 242.176 74.2161 237 66.0003C235.582 66.7673 234.166 67.5391 232.75 68.3128C231.962 68.742 231.173 69.1713 230.36 69.6136C227.978 70.9413 227.978 70.9413 225.922 72.6409C222.912 74.7698 220.573 74.4469 217 74.0003C214.563 72.4378 214.563 72.4378 213 70.0003C212.438 66.5628 212.438 66.5628 213 63.0003C216.952 57.55 223.33 54.4463 229 51.0003C228.311 47.0891 227.218 43.4452 225.938 39.6878C225.395 38.0848 225.395 38.0848 224.84 36.4495C224.563 35.6413 224.286 34.833 224 34.0003C213.985 34.0003 200.479 47.3479 193.688 54.1253ZM177 74.0003C167.26 87.6609 162.239 102.825 157.641 118.8C155.644 125.5 153.242 130.993 149.286 136.793C147.665 139.151 147.665 139.151 148 143C149.969 145.454 149.969 145.454 152.5 147.75C153.336 148.549 154.171 149.349 155.032 150.172C155.681 150.775 156.331 151.379 157 152C165.354 148.59 169.218 137.984 172.657 130.266C174.297 126.28 175.728 122.248 177.043 118.145C178 116 178 116 181 114C184.706 113.802 187.471 113.824 191 115C193.956 126.613 187.728 138.525 182.063 148.5C178.768 153.999 175.142 159.109 171 164C172.322 166.933 173.747 168.987 176.04 171.235C176.62 171.808 177.2 172.382 177.797 172.973C178.401 173.559 179.004 174.146 179.625 174.75C180.542 175.653 180.542 175.653 181.477 176.574C182.98 178.054 184.49 179.528 186 181C190.905 176.887 195.522 172.615 200.028 168.071C200.662 167.435 201.295 166.8 201.948 166.146C203.947 164.141 205.943 162.133 207.938 160.125C209.303 158.755 210.668 157.385 212.034 156.016C215.359 152.68 218.68 149.341 222 146C219.951 142.493 217.887 139.674 215.063 136.75C199.909 120.12 189.525 100.278 180.754 79.7278C179.905 77.7816 178.985 75.8815 178 74.0003C177.67 74.0003 177.34 74.0003 177 74.0003ZM128.821 155.727C122.514 159.547 115.932 161.39 108.875 163.375C94.7495 167.509 82.28 172.814 70.0005 181C71.7443 184.488 75.7724 185.253 79.2505 186.688C80.3971 187.188 80.3971 187.188 81.5669 187.698C87.1594 190.039 87.1594 190.039 93.0005 189C95.0175 188.165 97.0159 187.285 99.0005 186.375C105.063 183.66 111.236 181.573 117.563 179.563C127.52 176.364 136.681 172.499 145 166C143.466 162.345 141.251 160.013 138.438 157.25C137.632 156.451 136.827 155.652 135.997 154.828C132.799 151.9 132.229 153.492 128.821 155.727ZM151.688 181.063C138.365 190.555 123.449 195.139 108 200C111.223 203.312 114.638 205.956 118.438 208.563C124.196 212.566 129.557 216.867 134.737 221.596C137.852 224.359 138.648 225 143 225C144.739 223.839 144.739 223.839 146.3 222.155C146.921 221.534 147.541 220.913 148.18 220.274C148.838 219.596 149.495 218.918 150.172 218.219C150.855 217.531 151.537 216.843 152.24 216.134C154.42 213.932 156.585 211.716 158.75 209.5C160.225 208.006 161.7 206.512 163.176 205.02C166.795 201.357 170.401 197.682 174 194C173.052 192.888 172.103 191.777 171.154 190.666C170.625 190.047 170.097 189.428 169.552 188.791C167.544 186.474 165.458 184.253 163.313 182.063C162.193 180.905 162.193 180.905 161.051 179.723C157.229 176.512 155.158 178.409 151.688 181.063ZM49.5005 198.188C44.1847 203.561 40.0991 209.692 36.0005 216C35.508 216.754 35.0156 217.508 34.5083 218.285C33.2523 220.253 33.2523 220.253 32.0005 223C32.3305 223.99 32.6605 224.98 33.0005 226C35.3269 227.044 37.528 227.897 39.938 228.688C40.5844 228.913 41.2309 229.138 41.8969 229.369C45.3701 230.595 45.3701 230.595 49.0005 231C50.4087 228.921 51.7131 226.84 53.0005 224.688C57.6856 217.119 63.0304 209.633 70.2934 204.324C70.8567 203.888 71.4201 203.451 72.0005 203C72.0005 202.34 72.0005 201.68 72.0005 201C69.0221 199.998 66.0426 198.999 63.063 198C62.2128 197.714 61.3627 197.428 60.4868 197.133C59.2735 196.727 59.2735 196.727 58.0356 196.313C57.2867 196.061 56.5379 195.81 55.7663 195.551C52.4991 194.532 51.9347 195.845 49.5005 198.188ZM90.0005 210C79.2975 218.201 70.8172 226.274 64.0005 238C66.7842 240.171 69.6774 242.086 72.6704 243.956C82.7088 250.24 91.9314 257.389 101 265C105.006 263.397 107.678 260.579 110.641 257.555C111.168 257.025 111.695 256.495 112.238 255.949C113.914 254.263 115.582 252.569 117.25 250.875C118.388 249.728 119.526 248.581 120.665 247.434C123.448 244.628 126.226 241.816 129 239C121.283 231.221 113.375 224.611 104.188 218.625C103.26 218.01 102.333 217.396 101.377 216.762C97.6574 214.311 94.0279 211.919 90.0005 210ZM25.0005 241C16.4412 267.675 16.2365 298.584 29.0005 324C37.1953 339.76 48.9578 348.972 65.6684 354.973C83.7035 360.534 102.58 361.583 121.188 358.688C121.953 358.57 122.718 358.453 123.506 358.331C128.623 357.453 133.187 355.946 138 354C134.048 335.306 124.132 317.668 112.875 302.438C112.139 301.437 112.139 301.437 111.388 300.416C110.907 299.782 110.426 299.149 109.93 298.496C109.51 297.941 109.089 297.386 108.656 296.814C106.32 294.255 103.693 292.181 101 290C100.218 290.786 100.218 290.786 99.4194 291.588C94.5074 296.52 89.5929 301.45 84.6757 306.377C82.1477 308.91 79.6206 311.444 77.0957 313.98C74.1943 316.895 71.2889 319.805 68.3833 322.715C67.4749 323.629 66.5665 324.542 65.6306 325.483C64.7899 326.324 63.9492 327.165 63.083 328.031C61.9704 329.147 61.9704 329.147 60.8354 330.286C58.1962 332.752 57.2695 332.986 53.563 333.188C50.0005 333 50.0005 333 47.0005 331C46.0104 327.81 45.5354 326.203 46.0005 323C47.243 321.127 47.243 321.127 48.9734 319.268C49.9352 318.226 49.9352 318.226 50.9165 317.164C54.4272 313.519 57.968 309.91 61.559 306.344C62.3482 305.556 63.1374 304.769 63.9504 303.957C66.4439 301.469 68.9409 298.985 71.438 296.5C73.1407 294.803 74.8431 293.105 76.5454 291.407C80.6944 287.268 84.8463 283.133 89.0005 279C83.9923 268.15 69.0672 260.646 59.0005 255C58.3405 255 57.6805 255 57.0005 255C54.4691 262.172 53.3322 269.247 52.5278 276.778C52.0005 280 52.0005 280 50.0005 283C42.0856 284.532 42.0856 284.532 38.0005 283C35.5629 275.688 37.3752 268.039 38.938 260.75C39.1204 259.866 39.3028 258.982 39.4907 258.071C40.2611 254.361 41.0629 250.671 42.0005 247C40.1071 246.182 38.2107 245.371 36.313 244.563C35.2572 244.11 34.2015 243.658 33.1137 243.192C30.3807 242.146 27.88 241.465 25.0005 241Z" fill="#357656"/>
<path d="M315.107 9.93046C327.705 13.997 338.696 13.3892 351.188 9.31278C355.51 7.99396 358.576 7.63902 363 9.00028C366.406 11.142 368.695 13.084 370 17.0003C370.825 23.3185 368.552 27.9051 366.168 33.7073C364.819 37.5128 364.466 40.9038 364.239 44.9026C363.907 47.8201 362.827 49.7355 361 52.0003C357.862 53.5696 355.462 53.3523 352 53.0003C349.063 51.3128 349.063 51.3128 347 48.0003C346.321 41.9051 346.64 35.9768 348 30.0003C346.864 30.0957 345.727 30.1911 344.555 30.2893C329.795 31.4066 317.361 29.5457 303.241 25.187C282.772 18.8952 259.958 18.4471 240 27.0003C241.65 31.9503 243.3 36.9003 245 42.0003C246.98 41.3403 248.96 40.6803 251 40.0003C254.409 39.5198 257.598 39.4351 261 40.0003C264.14 42.5416 264.842 44.048 265.5 48.0003C264.855 51.8713 263.922 53.3707 261 56.0003C258.367 56.8683 255.712 57.394 253 58.0003C257.5 65.9335 262.172 73.5679 267.813 80.7503C268.268 81.3337 268.724 81.9172 269.193 82.5183C271.569 85.4797 273.927 87.7957 277 90.0003C277.929 89.0664 278.858 88.1326 279.814 87.1704C283.252 83.7146 286.693 80.2621 290.135 76.8106C291.626 75.3147 293.116 73.818 294.605 72.3204C296.742 70.1709 298.883 68.0248 301.024 65.8792C301.692 65.2063 302.359 64.5333 303.047 63.84C303.668 63.2195 304.288 62.5989 304.928 61.9595C305.474 61.411 306.02 60.8625 306.583 60.2974C308.677 58.3809 309.967 58.0047 312.813 57.6253C316 58.0003 316 58.0003 318.875 60.0003C321.105 63.1484 321.609 65.022 321.491 68.8553C320.517 73.1105 317.306 75.6639 314.219 78.5628C313.531 79.2395 312.843 79.9163 312.134 80.6136C309.941 82.762 307.722 84.881 305.5 87.0003C304.005 88.4554 302.512 89.9125 301.02 91.3714C297.367 94.9361 293.691 98.4746 290 102C291.321 104.895 292.415 106.434 294.688 108.813C297 112 297 112 297.063 115.625C295.899 119.324 295.236 120.872 292 123C288.285 123.715 286.04 123.63 282.77 121.649C280.781 120.163 278.871 118.633 277 117C272.899 118.622 270.169 121.577 267.141 124.664C266.592 125.216 266.043 125.768 265.477 126.337C263.73 128.095 261.99 129.86 260.25 131.625C259.065 132.821 257.879 134.016 256.692 135.211C253.789 138.136 250.893 141.066 248 144C249.298 146.934 250.548 148.74 253.055 150.735C253.665 151.223 254.274 151.711 254.902 152.213C255.553 152.721 256.205 153.228 256.875 153.75C257.542 154.277 258.208 154.805 258.894 155.348C263.986 159.33 269.23 162.942 274.707 166.379C277 168 277 168 279 171C279.566 175.363 279.494 177.298 276.938 180.938C273.233 183.539 271.462 183.422 267 183C264.043 181.532 264.043 181.532 261.188 179.5C259.637 178.402 259.637 178.402 258.055 177.282C250.991 172.006 244.321 166.533 238.008 160.371C236.138 158.772 236.138 158.772 234.087 159.224C231.647 160.132 230.435 161.203 228.609 163.051C227.968 163.692 227.328 164.332 226.668 164.992C225.649 166.035 225.649 166.035 224.61 167.098C223.905 167.807 223.201 168.516 222.475 169.246C220.226 171.511 217.988 173.787 215.75 176.063C214.228 177.601 212.704 179.138 211.18 180.674C207.446 184.442 203.72 188.218 200 192C201.277 194.801 202.592 196.836 204.782 198.993C205.618 199.824 205.618 199.824 206.47 200.671C207.069 201.257 207.668 201.842 208.286 202.446C208.902 203.057 209.518 203.668 210.153 204.297C212.118 206.245 214.09 208.185 216.063 210.125C218.038 212.073 220.012 214.022 221.983 215.975C223.209 217.188 224.438 218.399 225.669 219.607C230.857 224.734 230.857 224.734 231.375 229.313C231 233 231 233 228.875 235.938C226 238 226 238 223.063 238.563C216.494 237.356 212.02 232.298 207.508 227.703C206.917 227.11 206.327 226.516 205.718 225.905C203.849 224.024 201.987 222.138 200.125 220.25C198.852 218.967 197.579 217.685 196.305 216.403C193.198 213.274 190.098 210.139 187 207C184.143 208.297 182.09 209.664 179.884 211.889C179.304 212.47 178.724 213.05 178.126 213.648C177.512 214.272 176.898 214.896 176.266 215.539C175.628 216.18 174.99 216.821 174.333 217.481C172.301 219.525 170.275 221.575 168.25 223.625C166.872 225.014 165.493 226.402 164.114 227.789C160.737 231.188 157.367 234.592 154 238C154.933 239.264 155.869 240.525 156.805 241.785C157.326 242.488 157.846 243.191 158.383 243.915C159.884 245.85 161.456 247.647 163.125 249.438C172.011 259.535 179.192 270.885 185.688 282.625C186.205 283.549 186.722 284.473 187.255 285.425C189.902 290.331 191.848 294.381 192 300C190.864 302.377 189.856 304.145 188 306C186.11 306.309 186.11 306.309 183.75 306.438C182.982 306.498 182.214 306.559 181.422 306.621C177.703 305.668 176.035 303.063 174 300C172.51 297.429 171.191 294.789 169.875 292.125C162.873 278.489 153.034 260.689 140 252C131.75 260.25 123.5 268.5 115 277C118.587 281.782 122.177 286.501 125.875 291.188C138.991 308.13 147.373 327.134 155 347C155.858 346.483 156.715 345.966 157.598 345.434C158.742 344.775 159.885 344.116 161.063 343.438C162.188 342.776 163.314 342.115 164.473 341.434C168.586 339.762 170.747 339.875 175 341C177.884 343.588 178.85 345.196 179.563 349C178.792 353.114 177.152 354.254 174 357C171.196 358.831 168.286 360.399 165.313 361.938C164.479 362.372 163.644 362.805 162.785 363.252C131.772 378.925 93.9478 381.837 60.8618 371.185C49.6687 367.303 38.8247 361.99 30.0005 354C29.3289 353.42 28.6573 352.84 27.9653 352.242C11.8205 337.373 3.85703 312.858 2.82345 291.31C2.27834 256.204 2.27834 256.204 7.00045 240C7.18237 239.338 7.36429 238.675 7.55172 237.992C17.0162 204.025 40.9843 176.9 71.2461 159.726C81.9339 153.936 93.0565 150.147 104.754 146.913C117.628 143.264 128.555 137.554 135.903 126.012C140.423 117.594 142.989 108.841 145.61 99.6995C155.377 66.0028 179.946 37.1335 210.274 20.0237C211.514 19.3448 212.756 18.6703 214 18.0003C214.881 17.5232 214.881 17.5232 215.779 17.0364C246.871 0.533061 282.134 -1.04616 315.107 9.93046ZM193.688 54.1253C192.801 55.074 191.914 56.0228 191 57.0003C197.935 86.2584 214.015 110.995 234 133C240.741 127.474 246.808 121.306 252.938 115.125C254.014 114.044 255.09 112.964 256.166 111.883C258.78 109.258 261.391 106.63 264 104C260.501 99.3012 256.947 94.659 253.313 90.0628C247.333 82.4022 242.176 74.2161 237 66.0003C235.582 66.7673 234.166 67.5391 232.75 68.3128C231.962 68.742 231.173 69.1713 230.36 69.6136C227.978 70.9413 227.978 70.9413 225.922 72.6409C222.912 74.7698 220.573 74.4469 217 74.0003C214.563 72.4378 214.563 72.4378 213 70.0003C212.438 66.5628 212.438 66.5628 213 63.0003C216.952 57.55 223.33 54.4463 229 51.0003C228.311 47.0891 227.218 43.4452 225.938 39.6878C225.395 38.0848 225.395 38.0848 224.84 36.4495C224.563 35.6413 224.286 34.833 224 34.0003C213.985 34.0003 200.479 47.3479 193.688 54.1253ZM177 74.0003C167.26 87.6609 162.239 102.825 157.641 118.8C155.644 125.5 153.242 130.993 149.286 136.793C147.665 139.151 147.665 139.151 148 143C149.969 145.454 149.969 145.454 152.5 147.75C153.336 148.549 154.171 149.349 155.032 150.172C155.681 150.775 156.331 151.379 157 152C165.354 148.59 169.218 137.984 172.657 130.266C174.297 126.28 175.728 122.248 177.043 118.145C178 116 178 116 181 114C184.706 113.802 187.471 113.824 191 115C193.956 126.613 187.728 138.525 182.063 148.5C178.768 153.999 175.142 159.109 171 164C172.322 166.933 173.747 168.987 176.04 171.235C176.62 171.808 177.2 172.382 177.797 172.973C178.401 173.559 179.004 174.146 179.625 174.75C180.542 175.653 180.542 175.653 181.477 176.574C182.98 178.054 184.49 179.528 186 181C190.905 176.887 195.522 172.615 200.028 168.071C200.662 167.435 201.295 166.8 201.948 166.146C203.947 164.141 205.943 162.133 207.938 160.125C209.303 158.755 210.668 157.385 212.034 156.016C215.359 152.68 218.68 149.341 222 146C219.951 142.493 217.887 139.674 215.063 136.75C199.909 120.12 189.525 100.278 180.754 79.7278C179.905 77.7816 178.985 75.8815 178 74.0003C177.67 74.0003 177.34 74.0003 177 74.0003ZM128.821 155.727C122.514 159.547 115.932 161.39 108.875 163.375C94.7495 167.509 82.28 172.814 70.0005 181C71.7443 184.488 75.7724 185.253 79.2505 186.688C80.3971 187.188 80.3971 187.188 81.5669 187.698C87.1594 190.039 87.1594 190.039 93.0005 189C95.0175 188.165 97.0159 187.285 99.0005 186.375C105.063 183.66 111.236 181.573 117.563 179.563C127.52 176.364 136.681 172.499 145 166C143.466 162.345 141.251 160.013 138.438 157.25C137.632 156.451 136.827 155.652 135.997 154.828C132.799 151.9 132.229 153.492 128.821 155.727ZM151.688 181.063C138.365 190.555 123.449 195.139 108 200C111.223 203.312 114.638 205.956 118.438 208.563C124.196 212.566 129.557 216.867 134.737 221.596C137.852 224.359 138.648 225 143 225C144.739 223.839 144.739 223.839 146.3 222.155C146.921 221.534 147.541 220.913 148.18 220.274C148.838 219.596 149.495 218.918 150.172 218.219C150.855 217.531 151.537 216.843 152.24 216.134C154.42 213.932 156.585 211.716 158.75 209.5C160.225 208.006 161.7 206.512 163.176 205.02C166.795 201.357 170.401 197.682 174 194C173.052 192.888 172.103 191.777 171.154 190.666C170.625 190.047 170.097 189.428 169.552 188.791C167.544 186.474 165.458 184.253 163.313 182.063C162.193 180.905 162.193 180.905 161.051 179.723C157.229 176.512 155.158 178.409 151.688 181.063ZM49.5005 198.188C44.1847 203.561 40.0991 209.692 36.0005 216C35.508 216.754 35.0156 217.508 34.5083 218.285C33.2523 220.253 33.2523 220.253 32.0005 223C32.3305 223.99 32.6605 224.98 33.0005 226C35.3269 227.044 37.528 227.897 39.938 228.688C40.5844 228.913 41.2309 229.138 41.8969 229.369C45.3701 230.595 45.3701 230.595 49.0005 231C50.4087 228.921 51.7131 226.84 53.0005 224.688C57.6856 217.119 63.0304 209.633 70.2934 204.324C70.8567 203.888 71.4201 203.451 72.0005 203C72.0005 202.34 72.0005 201.68 72.0005 201C69.0221 199.998 66.0426 198.999 63.063 198C62.2128 197.714 61.3627 197.428 60.4868 197.133C59.2735 196.727 59.2735 196.727 58.0356 196.313C57.2867 196.061 56.5379 195.81 55.7663 195.551C52.4991 194.532 51.9347 195.845 49.5005 198.188ZM90.0005 210C79.2975 218.201 70.8172 226.274 64.0005 238C66.7842 240.171 69.6774 242.086 72.6704 243.956C82.7088 250.24 91.9314 257.389 101 265C105.006 263.397 107.678 260.579 110.641 257.555C111.168 257.025 111.695 256.495 112.238 255.949C113.914 254.263 115.582 252.569 117.25 250.875C118.388 249.728 119.526 248.581 120.665 247.434C123.448 244.628 126.226 241.816 129 239C121.283 231.221 113.375 224.611 104.188 218.625C103.26 218.01 102.333 217.396 101.377 216.762C97.6574 214.311 94.0279 211.919 90.0005 210ZM25.0005 241C16.4412 267.675 16.2365 298.584 29.0005 324C37.1953 339.76 48.9578 348.972 65.6684 354.973C83.7035 360.534 102.58 361.583 121.188 358.688C121.953 358.57 122.718 358.453 123.506 358.331C128.623 357.453 133.187 355.946 138 354C134.048 335.306 124.132 317.668 112.875 302.438C112.139 301.437 112.139 301.437 111.388 300.416C110.907 299.782 110.426 299.149 109.93 298.496C109.51 297.941 109.089 297.386 108.656 296.814C106.32 294.255 103.693 292.181 101 290C100.218 290.786 100.218 290.786 99.4194 291.588C94.5074 296.52 89.5929 301.45 84.6757 306.377C82.1477 308.91 79.6206 311.444 77.0957 313.98C74.1943 316.895 71.2889 319.805 68.3833 322.715C67.4749 323.629 66.5665 324.542 65.6306 325.483C64.7899 326.324 63.9492 327.165 63.083 328.031C61.9704 329.147 61.9704 329.147 60.8354 330.286C58.1962 332.752 57.2695 332.986 53.563 333.188C50.0005 333 50.0005 333 47.0005 331C46.0104 327.81 45.5354 326.203 46.0005 323C47.243 321.127 47.243 321.127 48.9734 319.268C49.9352 318.226 49.9352 318.226 50.9165 317.164C54.4272 313.519 57.968 309.91 61.559 306.344C62.3482 305.556 63.1374 304.769 63.9504 303.957C66.4439 301.469 68.9409 298.985 71.438 296.5C73.1407 294.803 74.8431 293.105 76.5454 291.407C80.6944 287.268 84.8463 283.133 89.0005 279C83.9923 268.15 69.0672 260.646 59.0005 255C58.3405 255 57.6805 255 57.0005 255C54.4691 262.172 53.3322 269.247 52.5278 276.778C52.0005 280 52.0005 280 50.0005 283C42.0856 284.532 42.0856 284.532 38.0005 283C35.5629 275.688 37.3752 268.039 38.938 260.75C39.1204 259.866 39.3028 258.982 39.4907 258.071C40.2611 254.361 41.0629 250.671 42.0005 247C40.1071 246.182 38.2107 245.371 36.313 244.563C35.2572 244.11 34.2015 243.658 33.1137 243.192C30.3807 242.146 27.88 241.465 25.0005 241Z" stroke="#357656" stroke-width="4" mask="url(#path-1-outside-1_864_2677)"/>
<path d="M401.771 50.3242C429.531 45.5951 458.23 49.9825 479.989 67.9023L481.02 68.7666L481.038 68.7822L481.057 68.7988C496.042 82.8932 505.634 101.899 511.273 121.347H511.272L512.008 123.873L512.01 123.88L512.012 123.888C515.455 136.406 516.409 148.778 516.375 161.625V163.892C516.342 175.722 515.417 186.821 511.964 198.264L511.965 198.265C511.611 199.555 511.256 200.845 510.902 202.136L510.899 202.147L510.896 202.158C500.312 237.474 473.929 262.663 443.46 281.164C432.176 288.089 424.687 296.886 421.284 309.862C420.184 315.259 419.894 320.396 419.98 325.938V327.744C419.751 365.421 404.712 398.901 379.744 426.669L379.743 426.668C379.164 427.319 378.586 427.971 377.989 428.642L377.97 428.663C358.635 449.163 330.988 462.747 303.116 465.993L303.071 465.999L303.027 466C299.775 466.087 296.533 466.023 293.312 465.957V465.956C291.433 465.934 289.554 465.913 287.675 465.893H287.673C284.74 465.856 281.807 465.813 278.872 465.753V465.752C264.357 465.472 252.662 465.557 241.496 475.267L241.482 475.278L241.469 475.289C237.921 478.159 234.201 478.39 230.063 478.359H229.98L229.899 478.345C225.832 477.639 223.813 475.288 221.284 472.698L221.176 472.587L221.105 472.447C219.773 469.782 219.858 467.934 219.824 465.252C219.501 450.249 218.554 438.937 210.098 426.424L210.097 426.422C190.342 397.05 185.218 363.776 191.521 329.302L191.521 329.293L191.523 329.285C196.249 305.655 207.355 283.39 223.25 265.339C223.978 264.49 224.706 263.641 225.456 262.767L225.462 262.76C235.927 250.787 247.791 241.646 261.521 233.815C273.879 226.767 282.357 218.679 286.625 204.812C288.274 198.326 288.32 191.874 288.438 185.046L288.438 185.034C288.749 174.074 289.546 163.532 292.025 152.775C292.179 152.096 292.334 151.416 292.492 150.716L292.494 150.706C297.822 128.159 309.297 107.953 325.268 91.3193L327.822 88.5732L327.832 88.5625C346.215 69.3535 373.573 55.1278 401.771 50.3242ZM423.638 68.625H423.634C422.453 68.6351 421.271 68.6448 420.055 68.6553C411.39 68.8087 403.561 69.5378 395.281 71.96L395.268 71.9639C394.591 72.1519 393.913 72.3395 393.216 72.5332C375.06 77.6496 358.758 86.2255 344.664 98.748C343.768 99.5444 342.871 100.34 341.947 101.16C321.291 120.733 308.621 150.362 307.742 178.695C307.679 181.138 307.619 183.581 307.562 186.023V186.024C307.025 208.007 301.864 225.111 285.694 240.72L285.686 240.729L285.676 240.737C281.356 244.7 276.473 247.466 271.536 250.28L271.537 250.281C262.718 255.326 255.101 260.819 247.682 267.731L247.675 267.738L244.78 270.387C221.961 292.161 208.653 323.349 207.782 354.796C207.453 376.932 213.492 396.065 225.274 414.576L225.84 415.457L225.846 415.467C233.424 427.478 237.378 438.7 238.868 452.647C238.984 452.608 239.121 452.562 239.295 452.503L239.298 452.502C240.043 452.251 240.787 451.999 241.555 451.74L243.734 451.002L243.748 450.998C244.711 450.688 245.675 450.376 246.667 450.057C247.365 449.811 248.065 449.566 248.784 449.313L248.793 449.311L248.801 449.308C255.144 447.203 260.639 446.639 267.236 446.848H267.237C269.178 446.876 271.119 446.904 273.06 446.932H273.065C276.066 446.993 279.066 447.063 282.066 447.138H282.065C313.633 447.864 340.194 437.611 363.28 415.711C387.937 391.541 400.006 360.322 401 326.006C400.991 324.426 400.972 322.849 400.938 321.272V321.258C400.803 303.793 407.539 287.332 419.395 274.63L419.414 274.609L419.435 274.589C424.872 269.401 431.157 265.817 437.481 262.145C467.208 244.126 487.261 218.707 495.745 184.909C502.073 155.721 495.714 123.017 479.741 97.833H479.74C469.436 82.92 458.138 73.5061 440.313 69.5811C434.776 68.6376 429.327 68.5538 423.638 68.625Z" fill="#357656" stroke="#357656" stroke-width="2"/>
<path d="M313.174 257.841C329.753 257.207 345.311 262.229 358.042 272.731L358.646 273.235L358.665 273.252L358.683 273.269C372.875 286.496 381.577 305.901 383.15 325.177L383.22 326.094L383.221 326.112L383.222 326.13C384.153 353.522 379.281 375.697 360.75 396.662L360.729 396.686C346.522 411.76 325.639 423.078 304.595 424.12L304.583 424.121H304.571C303.27 424.156 303.269 424.154 301.941 424.189L301.942 424.19C301.058 424.215 300.172 424.239 299.261 424.264L299.252 424.265C297.509 424.296 295.763 424.299 294.019 424.271C291.257 424.305 289.289 424.6 287.552 425.327C285.815 426.054 284.225 427.25 282.282 429.229L282.253 429.258C278.003 433.247 272.523 434.177 267.175 434.437L267.132 434.438L267.089 434.437C259.494 434.157 252.977 431.639 247.381 426.419L247.35 426.389L247.32 426.356C241.678 420.09 240.047 413.093 240.001 405.006L240 404.905L240.02 404.808C240.263 403.564 240.507 402.32 240.758 401.04C241.378 396.409 239.543 393.581 236.959 389.332L236.943 389.305C225.303 368.742 222.978 344.762 229.034 321.981L229.04 321.96L229.047 321.939C236.327 298.639 250.849 280.564 272.534 269.115L272.55 269.107C285.576 262.515 298.559 258.898 313.14 257.842L313.156 257.841H313.174ZM344.347 286.758C331.834 276.574 316.639 275.018 301.888 278.568C287.12 282.123 272.878 290.783 262.459 300.89C250.852 313.233 245.259 329.563 244.751 346.434C245.274 363.112 250.361 377.228 260.183 390.659L260.212 390.699L260.237 390.741C261.24 392.439 261.851 393.8 262.112 395.271C262.372 396.735 262.27 398.226 261.99 400.145L261.966 400.312L261.888 400.462C261.374 401.449 260.859 402.435 260.33 403.451C259.48 405.228 259.115 406.376 259.067 407.485C259.021 408.575 259.279 409.728 259.894 411.518C260.854 412.755 261.264 413.267 261.758 413.662C262.246 414.053 262.834 414.342 264.225 414.998C266.052 414.993 267.401 414.921 268.63 414.595C269.859 414.269 271.022 413.672 272.419 412.533C273.699 410.994 274.923 409.403 276.102 407.776L276.188 407.658L276.304 407.568C281.305 403.744 285.851 404.637 291.359 404.938C310.225 405.409 327.884 400.696 341.931 387.718C343.755 385.955 345.513 384.151 347.278 382.308L347.285 382.302C347.892 381.68 348.498 381.058 349.122 380.418C362.388 365.921 364.815 347.948 364.176 328.808H364.175C363.167 312.928 356.066 297.481 344.347 286.758Z" fill="#357656" stroke="#357656" stroke-width="2"/>
<path d="M400.588 82.3271C420.339 78.3328 441.099 80.9192 457.084 93.0732L457.842 93.6592L457.854 93.6689L457.867 93.6797C474.452 107.625 482.65 126.68 485.605 147.619L485.742 148.618L485.745 148.645L485.747 148.671C485.859 150.099 485.942 151.529 486 152.958L486.121 155.892V155.913C486.646 181.613 477.905 203.62 460.483 222.368L460.46 222.393L460.436 222.416C442.744 239.036 420.083 247.831 395.854 247.321C393.571 247.335 391.903 247.464 390.395 247.928C388.913 248.383 387.519 249.185 385.842 250.647C385.329 251.169 384.815 251.69 384.287 252.228L384.273 252.242L384.258 252.256C380 256.242 374.53 257.176 369.174 257.436L369.13 257.438L369.086 257.437C360.758 257.104 354.496 254.438 348.77 248.308L348.756 248.293L348.743 248.277C346.366 245.52 344.855 242.88 344.003 240.01C343.154 237.149 342.978 234.122 343.184 230.624C343.422 226.434 343.316 223.146 342.576 220.047C341.838 216.958 340.455 213.997 338.059 210.494L338.05 210.482L338.042 210.47C327.119 193.473 326.073 167.964 330.152 148.901L330.156 148.881L330.162 148.86C330.972 145.718 331.971 142.689 333.06 139.661C333.495 138.445 333.931 137.228 334.38 135.975L334.385 135.96L334.693 135.188C337.851 127.412 341.907 120.891 347.216 114.38L349.083 112.017L349.091 112.007L349.1 111.997C361.374 97.2528 380.526 86.3843 400.588 82.3271ZM446.038 108.978C435.562 100.349 422.134 98.3399 408.812 100.485C395.471 102.634 382.337 108.939 372.629 116.777L372.62 116.785L370.296 118.617C357.917 128.945 350.079 143.119 347.996 159.097C346.582 178.172 348.837 196.52 361.151 211.682L361.159 211.69C362.284 213.107 363.018 214.113 363.514 215.282C364.008 216.449 364.239 217.72 364.492 219.617L364.511 219.76L364.489 219.901C364.012 223.006 363.262 224.706 361.957 227.321C361.635 228.992 361.501 229.729 361.501 230.468C361.501 231.19 361.629 231.929 361.934 233.551C363.366 235.214 364.434 236.269 365.637 236.979C366.824 237.679 368.217 238.082 370.364 238.292C372.307 237.539 373.566 236.709 374.616 235.668C375.733 234.561 376.649 233.188 377.901 231.267L377.909 231.253L377.918 231.241C378.52 230.376 378.914 229.797 379.439 229.344C379.964 228.892 380.599 228.583 381.554 228.105L381.755 228.005L381.979 228C383.787 227.962 385.592 227.987 387.388 228.043H387.387C409.081 228.53 427.555 225.742 443.814 210.771C445.671 208.983 447.474 207.155 449.285 205.301L449.305 205.281C449.977 204.63 450.648 203.978 451.34 203.307C462.887 191.343 467.158 173.823 467.083 157.424H467.082C466.428 138.502 459.663 122.145 446.038 108.978Z" fill="#357656" stroke="#357656" stroke-width="2"/>
<path d="M438.385 173.327C440.159 172.925 442.05 173.185 444.292 173.77L445.274 174.038L445.481 174.098L445.646 174.236C446.836 175.244 447.534 175.829 448.108 176.547C448.537 177.083 448.891 177.686 449.363 178.56L449.883 179.53L449.982 179.719L449.997 179.933C450.239 183.499 449.642 186.296 448.392 188.865C447.158 191.399 445.303 193.671 443.128 196.195L443.11 196.217L443.09 196.237C432.297 207.421 419.88 213.888 404.26 214.963L404.23 214.965H404.202C395.135 215.065 385.992 213.384 378.679 207.391L378.6 207.326L378.536 207.247C376.34 204.541 376.53 201.805 376.653 198.896L376.655 198.827L376.668 198.761C376.837 197.821 376.941 197.207 377.248 196.526C377.537 195.885 378.004 195.192 378.793 194.008L378.905 193.839L379.075 193.728C380.606 192.721 381.922 192.105 383.331 191.709C384.722 191.318 386.168 191.153 387.914 191.004L388.086 190.989L388.252 191.032C391.396 191.853 391.432 191.864 394.648 193.058C400.29 194.898 404.166 195.558 409.736 194.035H409.738C410.524 193.822 411.31 193.609 412.119 193.39C420.693 190.509 426.805 184.383 432.67 177.359L432.677 177.351L433.033 176.941C434.805 174.952 436.448 173.766 438.385 173.327Z" fill="#357656" stroke="#357656" stroke-width="2"/>
<path d="M338.934 350.562L340.152 350.615L340.226 350.619L340.298 350.634C341.919 350.963 343.128 351.488 344.167 352.315C345.182 353.124 345.976 354.178 346.829 355.44L346.879 355.514L346.914 355.594C347.514 356.945 347.89 358.107 347.963 359.328C348.036 360.554 347.801 361.753 347.318 363.174L347.302 363.224L347.279 363.271C340.732 377.46 327.767 384.96 313.92 390.247L313.838 390.278L313.753 390.295C301.568 392.646 289.385 393.11 278.239 386.267L278.186 386.233L278.137 386.194C277.275 385.503 276.746 385.083 276.229 384.451C275.734 383.847 275.253 383.053 274.396 381.646L274.272 381.442L274.254 381.205C274.074 378.957 274.25 377.236 274.767 375.569C275.273 373.933 276.097 372.389 277.124 370.52L277.274 370.245L277.554 370.105C281.375 368.195 285.797 368.381 289.685 369.518L290.455 369.758L290.481 369.767L290.508 369.777C291.216 370.056 291.924 370.335 292.652 370.622C299.29 373.021 305.83 372.054 312.396 369.277C320.446 365.253 325.61 360.033 331.147 352.888L331.235 352.775L331.35 352.691C332.829 351.616 334.166 351.031 335.606 350.756C336.663 350.554 337.75 350.525 338.934 350.562Z" fill="#357656" stroke="#357656" stroke-width="2"/>
</g>
<defs>
<clipPath id="clip0_864_2677">
<rect width="518" height="480" fill="white"/>
</clipPath>
</defs>
</svg>
